<svg xmlns="http://www.w3.org/2000/svg" viewBox="0 0 72.66 82.79"><defs><style>.cls-1{fill:#152139;}.cls-2{fill:#f9c28f;}.cls-3{fill:#ffa539;}.cls-4{fill:#ce3045;}.cls-5{fill:#f5e7d0;}.cls-6{fill:#55382f;}.cls-7{fill:#fff;}.cls-8{fill:#cf6223;}.cls-9{fill:#dc9f78;}.cls-10{fill:#00adf9;}</style></defs><title>Asset 4</title><g id="Layer_2" data-name="Layer 2"><g id="Layer_1-2" data-name="Layer 1"><path class="cls-1" d="M61.05,20.06c0,11.08-4.59,19.64-24,20-18,.37-24-9-24-20.06S23.73,0,37,0,61.06,9,61.05,20.06Z"/><path class="cls-2" d="M32.09,50.26s2.57-6.84-2.88-9.42c-3.58-1.7-5.18-5-7-8.18C20,34,18.45,29.4,18,26.54a21.55,21.55,0,0,1-.2-2.84c0-.38,0-.76,0-1.12C18.53,12.3,27.72,5.5,38.14,6,49.69,6.46,55,14,55.33,23c.19,4.89-.79,10.36-3.63,9.47-2,2.78-3.47,6.45-7.42,8.71C41.13,43,43,47.79,42.54,50.37s6.24,5.06,6.24,5.06c.61,4.91-2.25,7.64-11.17,7.9-10,.29-10.85-5.59-11.7-8.29C29.22,54,32.09,51.07,32.09,50.26Z"/><path class="cls-3" d="M72.66,82.67C67.1,67.67,57.65,57.21,46,54a9.73,9.73,0,0,1-8.87,6.27c-8,.24-9.93-6-9.93-6-12,2.64-20.43,10-27.17,28.1C-.39,83.43,52.92,82.12,72.66,82.67Z"/><path class="cls-4" d="M31.7,33.35c-.54.49,1.88,3,4.95,3.1,3.46.09,5.32-2.63,4.9-3s-1.75.26-4.61.35C33.8,33.86,32.15,32.93,31.7,33.35Z"/><path class="cls-5" d="M33.23,33.41a5.24,5.24,0,0,0,3.29,1.49c2.19.19,3.41-.79,3.82-1.5A25.27,25.27,0,0,1,33.23,33.41Z"/><path class="cls-6" d="M31.13,26.33A1.23,1.23,0,1,1,29.9,25.1,1.23,1.23,0,0,1,31.13,26.33Z"/><path class="cls-6" d="M44.68,26.25A1.27,1.27,0,1,1,43.41,25,1.26,1.26,0,0,1,44.68,26.25Z"/><path class="cls-7" d="M29.84,26a.48.48,0,1,1-.48-.48A.48.48,0,0,1,29.84,26Z"/><path class="cls-7" d="M43.34,26a.49.49,0,1,1-.49-.49A.49.49,0,0,1,43.34,26Z"/><path class="cls-8" d="M32.49,24.51h-4.9a.5.5,0,0,1-.5-.5l5.4-1.15a.5.5,0,0,1,.5.5V24A.5.5,0,0,1,32.49,24.51Z"/><path class="cls-8" d="M46.2,24.4H41.29a.51.51,0,0,1-.5-.5v-.65a.5.5,0,0,1,.5-.5L46.7,23.9A.5.5,0,0,1,46.2,24.4Z"/><path class="cls-9" d="M35.46,31.91l2.44-.26a1.09,1.09,0,0,0,.84-1.59,1.69,1.69,0,0,1-.86.8c-.9.41-2.18.57-2.7.11s.31-2.73,1-4.61c-.46,0-1.17,1.4-1.31,1.94l-.61,2.27A1.09,1.09,0,0,0,35.46,31.91Z"/><path class="cls-8" d="M51.2,26.25l-5.37,7.91A25.79,25.79,0,0,0,37,32c-4.49-.17-8.82,2.61-8.82,2.61s-5.28-8.37-5.44-8.39-1.31.21-1.31.21c0,.46,2.42,31,15.78,30.34s15.2-30.55,15.2-30.55Zm-14.27,11c-6.25,1.65-6.51-3-3.41-4a9.88,9.88,0,0,1,6.6.16C43.43,34.86,41.61,38.74,36.93,37.2Z"/><path class="cls-8" d="M37.91,12.14s-2.66,5.86-1.54,5.5c3.28-1.05,6.11-4.25,7.36-3.42,2.44,1.62,8.66,14.38,8.66,14.38s.75-4.14,2.83-3.39c1.1-3.39.64-9.48-5.08-14.88C46.21,6.62,40,5.66,36.39,6s-9.95.81-13.94,5.46A17,17,0,0,0,17.8,24.63c2.07-.57,3.83,1.41,3.64,4.23,0,0,2.53-3.8,5.65-7.91L33,13.2s-2.63,6.7-2.26,6.5A16.34,16.34,0,0,0,37.91,12.14Z"/><path class="cls-1" d="M56.94,82.53c-1.28-14.65-2.3-26-2.3-26l-4.83-1.78,1.62,23.39H22.6l1.11-23.71L19.51,56s-1.06,10.4-2.71,26.76Z"/><path class="cls-10" d="M27.28,54s3.17,6.2,9.59,6.27C43.1,60.31,46,54,46,54l1.27.48a11.62,11.62,0,0,1-10.38,7c-7,.19-10.64-6.94-10.64-6.94Z"/></g></g></svg>