<svg xmlns="http://www.w3.org/2000/svg" viewBox="0 0 30.28 90.44"><defs><style>.cls-1{fill:#baa694;opacity:0.69;}.cls-2{fill:#fff;}.cls-3{fill:#ff7054;}.cls-4{fill:#f9c28f;}.cls-5{fill:#8e6b76;}.cls-6{fill:#152139;}.cls-7{fill:#ce3045;}.cls-8{fill:#f5e7d0;}.cls-9{fill:#cf6223;}.cls-10{fill:#dc9f78;}.cls-11{fill:#ffa539;}.cls-12{fill:#470c00;}.cls-13,.cls-14,.cls-15,.cls-16,.cls-17{fill:none;stroke:#1080bf;stroke-miterlimit:10;stroke-width:0.5px;}.cls-14{stroke-dasharray:0.93 0.93;}.cls-15{stroke-dasharray:1.09 1.09;}.cls-16{stroke-dasharray:1.03 1.03;}.cls-17{stroke-dasharray:1.16 1.16;}.cls-18{fill:#1080bf;}.cls-19{fill:#2f78ba;}.cls-20{fill:red;opacity:0.3;}</style></defs><title>Asset 1</title><g id="Layer_2" data-name="Layer 2"><g id="Layer_1-2" data-name="Layer 1"><path class="cls-1" d="M25.62,88.24c0,1.22-4.4,2.2-10.43,2.2s-10.76-1-10.76-2.21S9.15,86,15.19,86,25.62,87,25.62,88.24Z"/><path class="cls-2" d="M12.81,87.34c.09,0-7.18,2-7.52,1.09a.82.82,0,0,1,0-.31c.92-.92,5-2.43,5-2.43l2.57,1.4Z"/><rect class="cls-3" x="10.6" y="80.86" width="1.69" height="2.38"/><path class="cls-4" d="M27.56,49.5a4.8,4.8,0,0,1,1.88,0c.27,1,.56,2.78.8,4a2.29,2.29,0,0,1-1.65,2.49c-.72.17-.48-1.66-.77-2.45-.1-.3-.23,1.3-.5,1.07C26.39,53.73,27.56,49.5,27.56,49.5Z"/><path class="cls-4" d="M3.12,49.5a4.86,4.86,0,0,0-1.89,0c-.26,1-.56,2.78-.8,4a2.29,2.29,0,0,0,1.65,2.49c.72.17.48-1.66.77-2.45.11-.3.23,1.3.5,1.07C4.29,53.73,3.12,49.5,3.12,49.5Z"/><path class="cls-5" d="M7.58,74.41h0Z"/><path class="cls-5" d="M7.11,57.21h0Z"/><path class="cls-6" d="M23.16,7c0,3.84-1.6,6.82-8.36,7-6.25.12-8.35-3.13-8.35-7s3.75-7,8.36-7S23.16,3.12,23.16,7Z"/><path class="cls-4" d="M13.1,17.45s.89-2.37-1-3.27a5.91,5.91,0,0,1-2.43-2.84c-.79.46-1.31-1.13-1.45-2.13a6.55,6.55,0,0,1-.07-1c0-.13,0-.26,0-.39.23-3.57,3.42-5.93,7-5.77a5.77,5.77,0,0,1,6,5.93c.06,1.7-.28,3.6-1.26,3.29-.69,1-1.21,2.24-2.58,3-1.09.63-.63,2.38-.5,3.28.06.37,2.2,1.32,2.2,1.32.22,1.7-.92,3-4,3.08-3.47.1-3.77-1.94-4.07-2.88-.1-.34.32-.43.67-.51C11.62,18.6,13.1,17.74,13.1,17.45Z"/><path class="cls-7" d="M13,11.58c-.19.17.66,1.05,1.72,1.08s1.85-.92,1.7-1.06-.6.09-1.6.12S13.12,11.44,13,11.58Z"/><path class="cls-8" d="M13.49,11.6a1.82,1.82,0,0,0,1.15.52A1.31,1.31,0,0,0,16,11.6,8.88,8.88,0,0,1,13.49,11.6Z"/><path d="M12.76,9.14a.43.43,0,1,1-.42-.42A.42.42,0,0,1,12.76,9.14Z"/><path d="M17.47,9.12A.44.44,0,1,1,17,8.68.44.44,0,0,1,17.47,9.12Z"/><path class="cls-2" d="M12.32,9a.17.17,0,0,1-.17.17A.18.18,0,0,1,12,9a.17.17,0,0,1,.34,0Z"/><path class="cls-2" d="M17,9a.18.18,0,0,1-.17.17A.18.18,0,0,1,16.66,9a.17.17,0,0,1,.18-.17A.17.17,0,0,1,17,9Z"/><path class="cls-9" d="M13.24,8.51H11.53a.18.18,0,0,1-.17-.17l1.88-.4a.18.18,0,0,1,.17.17v.23A.18.18,0,0,1,13.24,8.51Z"/><path class="cls-9" d="M18,8.47H16.29a.18.18,0,0,1-.17-.17V8.07a.18.18,0,0,1,.17-.17l1.88.4A.17.17,0,0,1,18,8.47Z"/><path class="cls-10" d="M14.27,11.08l.85-.09a.38.38,0,0,0,.29-.55.67.67,0,0,1-.3.28,1,1,0,0,1-.94,0c-.16-.14.11-.94.36-1.6-.17,0-.41.49-.46.68l-.21.78A.37.37,0,0,0,14.27,11.08Z"/><path class="cls-9" d="M15.12,4.22s-.93,2-.54,1.91c1.14-.36,2.12-1.48,2.56-1.19.85.56,3,5,3,5s.27-1.43,1-1.17a5.15,5.15,0,0,0-1.77-5.17,6.59,6.59,0,0,0-4.77-1.51c-1.27.12-3.46.29-4.84,1.9A5.9,5.9,0,0,0,8.13,8.56C8.85,8.36,9.46,9,9.4,10c0,0,.88-1.31,2-2.74l2.05-2.69a18.92,18.92,0,0,0-.78,2.25A5.72,5.72,0,0,0,15.12,4.22Z"/><path class="cls-11" d="M1.38,49.46a32.25,32.25,0,0,1,0-18.71C3.85,22.66,7,19.57,11.64,18.54a3.33,3.33,0,0,0,3.45,2.07,3.37,3.37,0,0,0,3.08-2.18C23.74,20,28,26.82,29.11,35.37c1.32,9.9.28,14.13.28,14.13l-1.94.23C27.69,49.1,23,30,23.16,30.3s-1,12-1,12l-14-.48S7,29.52,6.78,29.85s-3.64,20-3.64,20Z"/><path class="cls-6" d="M9,19.15S6.38,43.93,6.09,49.48s2.5,24.69,4,29.77c2,.11,2.35-.26,2.35-.26L15,50.17s1.49,21.9,2.41,27.2c1.38,0,3,.14,3,.14S24,53.06,23.61,48s-2.43-28.66-2.43-28.66l-1.68-.62.66,9.51-10.08.11.36-9.73Z"/><path class="cls-12" d="M8.23,74.41h5.69L12.81,87.09s-7.24,2.06-7.52,1.08,4.87-3.59,4.87-3.59Z"/><path class="cls-12" d="M21.76,74.41h-5.7l1.11,12.68s7.24,2.06,7.52,1.08-4.87-3.59-4.87-3.59Z"/><polygon class="cls-13" points="10.43 32.03 10.43 31.54 10.93 31.54 10.43 32.03"/><path class="cls-14" d="M11.86,31.53h0Z"/><polygon class="cls-13" points="19.3 31.54 19.8 31.54 19.8 32.03 19.3 31.54"/><path class="cls-15" d="M19.8,33.12v0Z"/><path class="cls-13" d="M19.8,37.47V38l-.44.24Z"/><path class="cls-16" d="M18.45,38.7c-1.12.62-2.56,1.41-2.73,1.54s-2.88-.91-4.35-1.5Z"/><path class="cls-13" d="M10.89,38.54l-.46-.19v-.5Z"/><path class="cls-17" d="M10.43,36.69v0Z"/><path class="cls-18" d="M11.68,18.43A4.14,4.14,0,0,0,15,20.61a3.75,3.75,0,0,0,3.16-2.18l.44.17A4,4,0,0,1,15,21c-2.42.06-3.7-2.41-3.7-2.41Z"/><polygon class="cls-18" points="1.27 49.16 1.23 49.46 3.21 49.85 3.2 49.5 1.27 49.16"/><path class="cls-18" d="M27.41,49.37l2-.21s.09.29-.06.34-1.94.23-1.94.23Z"/><path class="cls-19" d="M12.65,65.74a2.06,2.06,0,1,1-2.06-2.06A2.06,2.06,0,0,1,12.65,65.74Z"/><path class="cls-19" d="M21,65.74a2.06,2.06,0,1,1-2.06-2.06A2.06,2.06,0,0,1,21,65.74Z"/><path class="cls-20" d="M12.89,10.65a1,1,0,1,1-1-1A1,1,0,0,1,12.89,10.65Z"/><path class="cls-20" d="M18.62,10.65a1,1,0,1,1-1-1A1,1,0,0,1,18.62,10.65Z"/></g></g></svg>