<svg xmlns="http://www.w3.org/2000/svg" viewBox="0 0 43.04 90.75"><defs><style>.cls-1{fill:#152139;}.cls-2{fill:#f9c28f;}.cls-3{fill:#00adf9;}.cls-4{fill:#ce3045;}.cls-5{fill:#f5e7d0;}.cls-6{fill:#55382f;}.cls-19,.cls-7{fill:#fff;}.cls-8{fill:#cf6223;}.cls-9{fill:#dc9f78;}.cls-10{fill:#baa694;opacity:0.69;}.cls-11{fill:#ff7054;}.cls-12{fill:#8e6b76;}.cls-13{fill:#470c00;}.cls-14,.cls-15,.cls-16,.cls-17,.cls-18{fill:none;stroke:#1080bf;stroke-miterlimit:10;stroke-width:0.5px;}.cls-15{stroke-dasharray:0.93 0.93;}.cls-16{stroke-dasharray:1.09 1.09;}.cls-17{stroke-dasharray:1.03 1.03;}.cls-18{stroke-dasharray:1.16 1.16;}.cls-19{opacity:0.3;}</style></defs><title>Asset 3</title><g id="Layer_2" data-name="Layer 2"><g id="Layer_1-2" data-name="Layer 1"><path class="cls-1" d="M23.41,7c0,3.84-1.6,6.82-8.36,7C8.8,14.05,6.7,10.8,6.7,7s3.75-7,8.36-7S23.41,3.12,23.41,7Z"/><path class="cls-2" d="M13.35,17.45s.89-2.37-1-3.27a5.91,5.91,0,0,1-2.43-2.84c-.79.46-1.31-1.13-1.45-2.13a6.55,6.55,0,0,1-.07-1c0-.13,0-.26,0-.39.23-3.57,3.42-5.93,7-5.77a5.77,5.77,0,0,1,6,5.93c.06,1.7-.28,3.6-1.26,3.29-.69,1-1.21,2.24-2.58,3-1.09.63-.45,2.29-.6,3.18s2.16,1.76,2.16,1.76c.22,1.7-.78,2.65-3.87,2.74-3.47.1-3.77-1.94-4.07-2.88A3.71,3.71,0,0,0,13.35,17.45Z"/><path class="cls-3" d="M32.92,32.09a22.7,22.7,0,0,0-4.11,1.77c-1.38-7.93-5.36-13.65-10.64-15.12a3.39,3.39,0,0,1-3.08,2.18,3.33,3.33,0,0,1-3.45-2.08C7,19.87,3.85,23,1.38,31.06a32.25,32.25,0,0,0,0,18.71l1.76.38s3.42-19.66,3.64-20,1.37,12,1.37,12l14,.48s1.09-11.52,1-12a21.09,21.09,0,0,0,2,7c.6,1.19,2.76,2.4,5.7.54a8.06,8.06,0,0,0,3.63-4.55Z"/><path class="cls-4" d="M13.21,11.58c-.19.17.66,1.05,1.72,1.08s1.85-.92,1.7-1.06-.6.09-1.6.12S13.37,11.44,13.21,11.58Z"/><path class="cls-5" d="M13.74,11.6a1.82,1.82,0,0,0,1.15.52,1.31,1.31,0,0,0,1.32-.52A8.88,8.88,0,0,1,13.74,11.6Z"/><path class="cls-6" d="M13,9.14a.43.43,0,0,1-.43.43.43.43,0,1,1,0-.85A.43.43,0,0,1,13,9.14Z"/><path class="cls-6" d="M17.72,9.12a.44.44,0,1,1-.44-.44A.44.44,0,0,1,17.72,9.12Z"/><path class="cls-7" d="M12.57,9a.17.17,0,0,1-.17.17A.18.18,0,0,1,12.23,9a.17.17,0,0,1,.34,0Z"/><path class="cls-7" d="M17.26,9a.18.18,0,0,1-.17.17A.17.17,0,0,1,16.92,9a.16.16,0,0,1,.17-.17A.17.17,0,0,1,17.26,9Z"/><path class="cls-8" d="M13.49,8.51h-1.7a.18.18,0,0,1-.18-.17l1.88-.4a.18.18,0,0,1,.17.17v.23A.18.18,0,0,1,13.49,8.51Z"/><path class="cls-8" d="M18.25,8.47H16.54a.18.18,0,0,1-.17-.17V8.07a.18.18,0,0,1,.17-.17l1.88.4A.17.17,0,0,1,18.25,8.47Z"/><path class="cls-9" d="M14.52,11.08l.85-.09a.38.38,0,0,0,.29-.55.67.67,0,0,1-.3.28,1,1,0,0,1-.94,0c-.16-.14.11-.94.36-1.6-.17,0-.41.49-.46.68l-.21.78A.37.37,0,0,0,14.52,11.08Z"/><path class="cls-8" d="M20,9.11l-1.86,2.75a9.11,9.11,0,0,0-3.06-.74A6.07,6.07,0,0,0,12,12s-1.84-2.91-1.89-2.92-.46.08-.46.08c0,.16.84,10.75,5.48,10.53S20.41,9.11,20.41,9.11Zm-5,3.81c-2.17.57-2.26-1-1.18-1.38a3.41,3.41,0,0,1,2.29.06C17.29,12.11,16.65,13.45,15,12.92Z"/><path class="cls-8" d="M15.37,4.22s-.93,2-.54,1.91C16,5.76,17,4.65,17.39,4.94c.85.56,3,5,3,5s.26-1.44,1-1.18a5.15,5.15,0,0,0-1.76-5.16,6.63,6.63,0,0,0-4.78-1.51C13.57,2.2,11.39,2.36,10,4A5.88,5.88,0,0,0,8.39,8.55C9.11,8.36,9.72,9,9.65,10c0,0,.88-1.32,2-2.75.9-1.17,2.05-2.69,2.05-2.69a19,19,0,0,0-.78,2.26A5.66,5.66,0,0,0,15.37,4.22Z"/><path class="cls-10" d="M25.62,88.54c0,1.22-4.4,2.21-10.43,2.21s-10.76-1-10.76-2.22,4.72-2.21,10.76-2.2S25.62,87.32,25.62,88.54Z"/><path class="cls-7" d="M12.81,87.65c.09,0-7.18,2-7.51,1.08a.66.66,0,0,1,0-.3c.92-.93,5-2.44,5-2.44l2.57,1.4Z"/><rect class="cls-11" x="10.6" y="81.17" width="1.69" height="2.38"/><path class="cls-2" d="M3.12,49.81a4.84,4.84,0,0,0-1.89,0c-.26,1-.56,2.78-.8,3.95a2.3,2.3,0,0,0,1.65,2.5c.72.17.48-1.66.77-2.46.11-.3.23,1.31.5,1.08C4.29,54,3.12,49.81,3.12,49.81Z"/><path class="cls-12" d="M7.58,74.71h0Z"/><path class="cls-12" d="M7.11,57.51h0Z"/><path class="cls-1" d="M9,19.46S6.38,44.23,6.09,49.78s2.5,24.7,4,29.77c2,.12,2.36-.26,2.36-.26L15,50.48s1.49,21.89,2.41,27.2c1.38,0,3,.14,3,.14S24,53.37,23.61,48.29s-2.43-28.66-2.43-28.66L19.5,19l.66,9.52-10.08.11.36-9.74Z"/><path class="cls-13" d="M8.23,74.71h5.69L12.81,87.39S5.57,89.45,5.3,88.48s4.86-3.59,4.86-3.59Z"/><path class="cls-13" d="M21.76,74.71h-5.7l1.11,12.68s7.24,2.06,7.52,1.09-4.87-3.59-4.87-3.59Z"/><polygon class="cls-14" points="10.43 32.34 10.43 31.84 10.93 31.84 10.43 32.34"/><path class="cls-15" d="M11.86,31.84h0Z"/><polygon class="cls-14" points="19.3 31.84 19.8 31.84 19.8 32.34 19.3 31.84"/><path class="cls-16" d="M19.8,33.43v0Z"/><path class="cls-14" d="M19.8,37.78v.5l-.44.23Z"/><path class="cls-17" d="M18.45,39c-1.12.61-2.56,1.41-2.73,1.53s-2.88-.9-4.35-1.5Z"/><path class="cls-14" d="M10.89,38.85l-.46-.19v-.5Z"/><path class="cls-18" d="M10.43,37v0Z"/><path class="cls-1" d="M11.68,18.74A4.14,4.14,0,0,0,15,20.92a3.77,3.77,0,0,0,3.16-2.18l.44.16A4,4,0,0,1,15,21.33c-2.42.07-3.7-2.41-3.7-2.41Z"/><polygon class="cls-1" points="1.27 49.46 1.23 49.77 3.21 50.15 3.2 49.81 1.27 49.46"/><path class="cls-19" d="M12.65,66A2.06,2.06,0,1,1,10.59,64,2.06,2.06,0,0,1,12.65,66Z"/><path class="cls-19" d="M21,66A2.06,2.06,0,1,1,18.9,64,2.06,2.06,0,0,1,21,66Z"/><polygon class="cls-8" points="36.6 32.69 36.6 74.2 37.92 74.56 37.92 32.69 36.6 32.69"/><path class="cls-1" d="M37.3,88.77c0-2.5,0-12.21,0-15h-.74v2.37l-5,.19s-.64,5.65,1,8.61c1.25,2.34,4.77,3.82,4.77,3.82Z"/><path class="cls-19" d="M37.3,88.77c0-2.5,0-12.21,0-15h-.74v2.37l-5,.19s-.64,5.65,1,8.61c1.25,2.34,4.77,3.82,4.77,3.82Z"/><path class="cls-1" d="M37.19,88.77c0-2.5,0-12.21,0-15h.74v2.37l5,.19S43.56,82,42,85c-1.25,2.34-4.77,3.82-4.77,3.82Z"/><path class="cls-2" d="M34.32,33.9,33,32.13c.92-.39,2.58-1.07,3.71-1.47s2.74,1,2.61,1.92-1.49.08-2.24.47c-.28.15,1.33.05,1.14.35C37.56,34.44,34.32,33.9,34.32,33.9Z"/><polygon class="cls-1" points="33.01 32.01 34.48 33.93 34.26 34.28 32.6 32.23 33.01 32.01"/></g></g></svg>