<svg xmlns="http://www.w3.org/2000/svg" xmlns:xlink="http://www.w3.org/1999/xlink" viewBox="0 0 751.03 500"><defs><style>.cls-1{isolation:isolate;}.cls-2{fill:#34e8ff;}.cls-3{fill:#6feefe;}.cls-3,.cls-4,.cls-5,.cls-6,.cls-7{mix-blend-mode:luminosity;}.cls-4{fill:#61e6f9;}.cls-5{fill:#49daf1;}.cls-6{fill:#44d8ef;}.cls-7{fill:#36d0ea;}.cls-51,.cls-8,.cls-9{fill:#fff;}.cls-8{opacity:0.15;}.cls-9{opacity:0.2;}.cls-10{fill:url(#Degradado_sin_nombre_3);}.cls-11{fill:#d7edf8;}.cls-12{fill:url(#Degradado_sin_nombre_3-2);}.cls-13{fill:#0b580a;}.cls-14{fill:#39530a;}.cls-15{fill:#5a961c;}.cls-16{fill:#4d801b;}.cls-17{fill:#64a61e;}.cls-18{fill:#51841b;}.cls-19{fill:#72b124;}.cls-20{fill:#9bd135;}.cls-21{fill:#3f710e;}.cls-22{fill:#3f7619;}.cls-23{fill:#467e1a;}.cls-24{fill:#386c10;}.cls-25{fill:#0f5614;}.cls-26{fill:#87bb2b;}.cls-27{fill:#71b122;}.cls-28{fill:#afea44;}.cls-29,.cls-32,.cls-33,.cls-48{mix-blend-mode:multiply;}.cls-29{fill:url(#Degradado_sin_nombre_31);}.cls-30{fill:#9edb3e;}.cls-31{fill:#5d991d;}.cls-32{fill:url(#Degradado_sin_nombre_17);}.cls-33{fill:url(#Degradado_sin_nombre_12);}.cls-34{fill:#73a92f;}.cls-35{fill:#e6d100;}.cls-36{fill:#d4b000;}.cls-37{fill:#4e8214;}.cls-38{fill:#2d5e03;}.cls-39{fill:#97ce35;}.cls-40{fill:#a7e13f;}.cls-41{fill:#b44c49;}.cls-42{fill:#f7f7f7;}.cls-43{fill:#9c4240;}.cls-44{fill:#e5e5e5;}.cls-45{fill:#c9c9c9;}.cls-46,.cls-48{fill:#b2b2b2;}.cls-47{fill:#6d2e2e;}.cls-49,.cls-50{fill:none;stroke:#6d2e2e;}.cls-49{stroke-linecap:round;stroke-linejoin:round;}.cls-50{stroke-miterlimit:10;}.cls-52{fill:#f5fbfd;}.cls-53{fill:url(#Degradado_sin_nombre_33);}.cls-54{fill:url(#Degradado_sin_nombre_33-2);}.cls-55{fill:url(#Degradado_sin_nombre_33-3);}.cls-56{fill:url(#Degradado_sin_nombre_33-4);}</style><linearGradient id="Degradado_sin_nombre_3" x1="83.91" y1="140.63" x2="132.21" y2="226.43" gradientUnits="userSpaceOnUse"><stop offset="0" stop-color="#58cee8"/><stop offset="1" stop-color="#45a4d4"/></linearGradient><linearGradient id="Degradado_sin_nombre_3-2" x1="595.57" y1="218.13" x2="615.73" y2="268" xlink:href="#Degradado_sin_nombre_3"/><linearGradient id="Degradado_sin_nombre_31" x1="375" y1="319.38" x2="375" y2="412.54" gradientUnits="userSpaceOnUse"><stop offset="0" stop-color="#87bb2b" stop-opacity="0"/><stop offset="1" stop-color="#4d801b" stop-opacity="0.3"/></linearGradient><linearGradient id="Degradado_sin_nombre_17" x1="375" y1="497.14" x2="375" y2="387.17" gradientUnits="userSpaceOnUse"><stop offset="0" stop-color="#4d801b" stop-opacity="0.3"/><stop offset="0.1" stop-color="#52891c" stop-opacity="0.23"/><stop offset="0.36" stop-color="#5c991d" stop-opacity="0.1"/><stop offset="0.64" stop-color="#62a31e" stop-opacity="0.02"/><stop offset="1" stop-color="#64a61e" stop-opacity="0"/></linearGradient><linearGradient id="Degradado_sin_nombre_12" x1="200.82" y1="556.15" x2="238.91" y2="458.51" gradientUnits="userSpaceOnUse"><stop offset="0" stop-color="#3f710e" stop-opacity="0.3"/><stop offset="0.05" stop-color="#417310" stop-opacity="0.26"/><stop offset="0.32" stop-color="#487a16" stop-opacity="0.12"/><stop offset="0.62" stop-color="#4c7f1a" stop-opacity="0.03"/><stop offset="1" stop-color="#4d801b" stop-opacity="0"/></linearGradient><linearGradient id="Degradado_sin_nombre_33" x1="360.8" y1="316.12" x2="360.8" y2="333.15" gradientUnits="userSpaceOnUse"><stop offset="0" stop-color="#0b580a"/><stop offset="1" stop-color="#0b470c"/></linearGradient><linearGradient id="Degradado_sin_nombre_33-2" x1="392.71" y1="319.76" x2="392.71" y2="336.59" xlink:href="#Degradado_sin_nombre_33"/><linearGradient id="Degradado_sin_nombre_33-3" x1="426.72" y1="312.8" x2="426.72" y2="329.42" xlink:href="#Degradado_sin_nombre_33"/><linearGradient id="Degradado_sin_nombre_33-4" x1="317.37" y1="306.28" x2="317.37" y2="326.56" xlink:href="#Degradado_sin_nombre_33"/></defs><title>2392613</title><g class="cls-1"><g id="objects"><rect class="cls-2" width="750" height="500"/><path class="cls-3" d="M0,263.76v58.52H750V205.2S355.93,200.68,0,263.76Z"/><path class="cls-4" d="M0,173.47c267-26.9,750-25,750-25v9.72s-8.85,42.11-21.77,42.3c-22.31.33-324,.89-346,1.52C347.58,203,0,203.3,0,203.3V173.47"/><path class="cls-5" d="M0,104.74c178-23,750-21.37,750-21.37v48.76c-44.63.85-335.24,1.67-379.16,3.27C301.48,137.92,0,138.64,0,138.64v-33.9"/><path class="cls-6" d="M0,49C89,33.23,750,34.36,750,34.36V48.5L0,89.39V49"/><path class="cls-7" d="M0,0H750V12.65S486.72,18.57,348,25.47,0,34.35,0,34.35V0"/><polygon class="cls-8" points="720.78 0 595.89 316.72 502.87 316.72 669.39 0 720.78 0"/><polygon class="cls-8" points="613.2 0 468.25 316.72 280.46 316.72 454.73 0 613.2 0"/><polygon class="cls-9" points="579.52 0 436.3 316.72 379.44 316.72 548.67 0 579.52 0"/><polygon class="cls-9" points="510.14 0 345.68 316.72 317.37 316.72 494.39 0 510.14 0"/><polygon class="cls-8" points="369.97 0 208.26 316.72 159.27 316.72 345.59 0 369.97 0"/><polygon class="cls-8" points="199.56 0 23.21 316.72 0 316.72 0 216.47 141.39 0 199.56 0"/><path class="cls-10" d="M1.09,195.76l1.56-1.82a4.5,4.5,0,0,1,6.61-.26h0a4.51,4.51,0,0,0,6.52-.15L43.51,163a4.52,4.52,0,0,1,6.35-.32l23.32,21a4.51,4.51,0,0,0,4.42.93l5.54-1.81a4.5,4.5,0,0,1,4.25.79L101,194.71a4.5,4.5,0,0,0,5.67,0l10.56-8.45a4.52,4.52,0,0,1,5.78.12l35.05,30.49a4.49,4.49,0,0,0,6-.05l26.88-24.17a4.52,4.52,0,0,1,6.42.4l17.81,20.54a4.5,4.5,0,0,0,5.67.95l6.79-3.93a4.5,4.5,0,0,1,5,.3l94.7,71.32H0V198.69A4.47,4.47,0,0,1,1.09,195.76Z"/><path class="cls-11" d="M14.67,208.3l-3.79-3.79s7.2.38,8-1.9,0-5.68,0-5.68l25.42-6.44-12.16-3s8-8,9.47-12.51c1.31-3.91,2.09-11.85,4.18-13.27A4.54,4.54,0,0,0,43.51,163L15.78,193.53a4.51,4.51,0,0,1-6.52.15,4.5,4.5,0,0,0-6.61.26l-1.56,1.82A4.47,4.47,0,0,0,0,198.69v19.08l3.3-9.47Z"/><path class="cls-11" d="M83.18,189.73c3.33-.43,0-4.17,0-4.17l4.21-2a4.5,4.5,0,0,0-4.25-.79l-5.54,1.81a4.5,4.5,0,0,1-3.88-.52l4.71,3.58v5.41A6.49,6.49,0,0,1,83.18,189.73Z"/><path class="cls-11" d="M121,210.52s-5.09-10-5.46-12.89,5.46,0,5.46,0L119,193.05s.92-9.38,5.66-5.25h0L123,186.41a4.52,4.52,0,0,0-5.78-.12l-10.56,8.45a4.5,4.5,0,0,1-5.19.31Z"/><polygon class="cls-11" points="98.98 193.05 98.98 193.05 98.98 193.05 98.98 193.05"/><path class="cls-11" d="M187,238.43l10.24-2.89L183.25,230s16.68-7.8,20.77-9.5-24.14,0-24.14,0,8.44-2.67,7.07-4.06-6.87-3.95-6.87-3.95l11.65-7s-4.1-2.05-2-5.46c1.93-3.21,4.52-9.38,7.16-7.43a4.5,4.5,0,0,0-5.91.08l-26.88,24.17a4.49,4.49,0,0,1-4.48.91Z"/><path class="cls-11" d="M221.36,217.14s-2.69,3.09-2.69,3.59,6.77-1.1,8.56-1.8,1.05-3.58,1.87-4.47,1.19-5.25,5.49-2l-2-1.5a4.5,4.5,0,0,0-5-.3l-6.79,3.93a4.44,4.44,0,0,1-1,.4h-.06a4.35,4.35,0,0,1-1.56.16c-1.79.2-3.83.53-3.16,1.2C216,217.24,221.36,217.14,221.36,217.14Z"/><path class="cls-12" d="M748.74,185.91l-15.23-14a3.92,3.92,0,0,0-5.42.09L683.21,216.4a3.92,3.92,0,0,1-5.86-.38l-8.89-11.44a3.94,3.94,0,0,0-5.78-.47h0a3.92,3.92,0,0,1-5.61-.28l-8.31-9.41a3.93,3.93,0,0,0-5.48-.4l-35.77,30.32a3.93,3.93,0,0,1-5.21-.12l-6-5.52a3.93,3.93,0,0,0-5-.28L468.8,308.78a3.93,3.93,0,0,0,2.33,7.09H746.07a3.93,3.93,0,0,0,3.93-3.93V188.8A3.94,3.94,0,0,0,748.74,185.91Z"/><path class="cls-11" d="M733.51,171.87a3.92,3.92,0,0,0-5.42.09L683.21,216.4c-.64.65-3.14,3.12-3.14,3.12L664.5,234s20.62-9.24,28.1-11.41c7.08-2.06,22-5.55,20.49-6.11L705,213.61s8-.78,8.18-2.86-4-4.94-4-4.94,16.89-2.08,19.49-3.38-12.21-3.9-12.47-7,15.85-6.5,14.55-10.92-.37-7.27.07-9.61,1.12-4.47,6,0Z"/><path class="cls-11" d="M511.45,284.8s57.43,7.28,58.21,7.6,12.47-30.46,12.51-38.19-10.43-2.67-10.43-5.43-5.72.16-5.69-1,16.6-5.21,16.6-5.21-8.06-.41-9.87,0,2.85-3.53,15.29-8.54,6.68-7.14,6.68-7.14-4.83.46-3.53-1.67,4.66-7,7.06-4.75h0l-1.94-1.8a3.93,3.93,0,0,0-5-.28L509.46,278.8Z"/><path class="cls-13" d="M597.07,294.53a191.45,191.45,0,0,1-36.27,1.92A126.46,126.46,0,0,1,544,294.26c-5.24-1-9.74-2.9-14.64-5-5.07-2.14-11.36-2.63-16.69-4.19-11-3.2-21.71-7.55-31.18-14-2.64-1.81-6.22-4.4-7.07-7.71-.76-2.92,2.38-5.9,5-6.92,3.4-1.33,8,.41,8.8,4,.73-1.71,3.81-1.4,4.18.42a1.7,1.7,0,0,1,2.55,1.36,1.92,1.92,0,0,1,3.11-1.12,3.49,3.49,0,0,1,4.14-5.55,6.25,6.25,0,0,1,11.41-.5,2.52,2.52,0,1,1,4.12-2.89,3.64,3.64,0,0,1,6.88-2.28c.45-3.13,1.09-6.54,3.49-8.59s7.12-1.34,7.58,1.79a4.14,4.14,0,0,1,3.36-2.25c1.41,0,2.75,1.54,2.19,2.84a3.39,3.39,0,0,1,4.68,4.89,2.74,2.74,0,0,1,3,4.45,1.72,1.72,0,0,1,3.31.93,4,4,0,0,1,7.72,1.75,2.43,2.43,0,0,1,4.82-.05,3.52,3.52,0,1,1,7,.06,2.38,2.38,0,0,1,3.86,1A6.17,6.17,0,0,1,588,257.72c1.61-1.52,4.83.15,4.51,2.34a3.72,3.72,0,1,1,7,2.32,2.26,2.26,0,0,1,3.15,1.8c.85-1.95,4.54-1,4.31,1.14a3.48,3.48,0,0,1,6.9-.08,5.15,5.15,0,0,1,9.2-2.5c-.57-.62.34-1.53,1.15-1.77,3.72-1.11,7.94,1,9.82,4.43a12.64,12.64,0,0,1,0,11.22,22.29,22.29,0,0,1-7.7,8.55C617.82,291.09,607.3,293.13,597.07,294.53Z"/><path class="cls-14" d="M272.61,281.38c3.26-1.84,6.79-4.37,7.13-8.1a6.13,6.13,0,0,0-9.83-5.45,4.11,4.11,0,0,0-6.7-.91,4.9,4.9,0,1,0-9.48-1.92,3.86,3.86,0,0,0-7.48-.6,7.26,7.26,0,0,0-1.76-4.12c-1.13-1-3.29-1-3.87.41a3.95,3.95,0,0,0-6.56-3.5c2.52-2.87.16-8.28-3.65-8.39S223.94,254,226.3,257a3.46,3.46,0,0,0-5.34-.25l.08,1.82a2.55,2.55,0,1,0-4,2.93,4,4,0,0,0-5.66-1.81,5.43,5.43,0,0,0-.34-5c-1-1.42-3.46-1.79-4.53-.39.36-.9-.72-1.83-1.69-1.73a4.31,4.31,0,0,0-2.4,1.51c.71-1.67-1.54-3.48-3.22-2.79s-2.28,2.94-1.65,4.65A3.82,3.82,0,0,0,192,256c.31-1.64-2.06-2.77-3.46-1.88s-1.71,2.88-1.28,4.48a5.33,5.33,0,0,0-8.52,5.84c1.21,3.35,5.28,3.67,8.48,5.24q13.63,6.66,27.84,12c9.39,3.56,18.13,8.7,28.47,8.55S263.73,286.38,272.61,281.38Z"/><path class="cls-13" d="M56.32,265.66c-1-2.9-2.38-5.81-2.12-8.87.17-1.89,1-3.69,1.06-5.59a4.86,4.86,0,0,0-2.42-4.72,6,6,0,0,0-2.49-.78c-.25,0-2.43.05-2.41.4a2.5,2.5,0,0,0-1.32-2,4.14,4.14,0,0,0-2.43-.45,6.4,6.4,0,0,0-3.72,1.63,1.65,1.65,0,0,0-1.8-1.13,4,4,0,0,0-2.05,1,1.77,1.77,0,0,0-1.34-2.36,3.38,3.38,0,0,0-2.85,1.06,5.08,5.08,0,0,0-.79-3.73c-.87-1.29-2.15-1.39-3.63-1.4a7.8,7.8,0,0,0-3.93.82,3.74,3.74,0,0,0-2,3.26c.14-1.33-1.4-2.34-2.72-2.18A6.32,6.32,0,0,0,16,242.69c.39-1.33-.78-2.7-2.12-3.06a7.94,7.94,0,0,0-4.08.37,9.51,9.51,0,0,0,.88-3.49,3.27,3.27,0,0,0-1.67-3,3.62,3.62,0,0,0,1.82-4.84A4.33,4.33,0,0,0,6,226.9c-1.6.48-2.06,1.78-3,3.1s-3,0-3,0v85.87l3.86-1.62c19.58-4,38.68-10.52,57-18.42C58.31,286,59.57,275.32,56.32,265.66Z"/><path class="cls-15" d="M0,293.31c42,3.39,196.64-2.34,248.4-13.82s102.32-30.77,164.92-27.81c66.6,3.15,211.19,53.29,235.83,65.68H0Z"/><path class="cls-16" d="M287.62,262.18l.1.07a1.81,1.81,0,0,0-1.32.54,1,1,0,0,0,.48,1.46.91.91,0,0,0-.93.88.89.89,0,0,0,1,.85.76.76,0,0,0-.88.65.77.77,0,0,0,.77.78,2.54,2.54,0,0,0-1.82.46,1.57,1.57,0,0,0-.57,1.71,1.45,1.45,0,0,0,1.53.86,2.13,2.13,0,0,0-.09,1.87,1.17,1.17,0,0,0,1.63.51,1,1,0,0,0-.06,1.39,1.17,1.17,0,0,0,1.4.24c.29-.15.52-.42.83-.48s.85.21,1.26.38a2.25,2.25,0,0,0,2.83-1.2,2,2,0,0,0,3.14,0,1.69,1.69,0,0,0-1.51-2.51c.32-.55.94-1.34.55-2a1,1,0,0,0-1.32-.35,1.12,1.12,0,0,0-.53-1.4,1.1,1.1,0,0,0,.87-.84.8.8,0,0,0-.68-.91c.52-.44,1.09-1,1-1.68a1.29,1.29,0,0,0-.95-1,2.19,2.19,0,0,0-1.47.13,1.31,1.31,0,0,0-.85-1.65c.41-.29.86-.76.66-1.22s-.57-.45-.94-.51a.91.91,0,0,0,.36-1.1.89.89,0,0,0-1.05-.47c.28-.7-.39-2.4-1.39-1.92a1,1,0,0,0-.43.87,3.23,3.23,0,0,0,.17,1.2.7.7,0,0,0-1,0,.89.89,0,0,0-.11,1,1.19,1.19,0,0,0,.87.58c-.43.2-.92.22-1.35.4a1.65,1.65,0,0,0-1,1.16C286.77,261.41,287.24,261.9,287.62,262.18Z"/><path class="cls-17" d="M312.61,279.49c15.81,6.83,57.67-1.28,71.64-3.93s-4.89,6.4,1.15,10.3,43.46-12.09,67.3-15.11,54.23-1.17,54.47-1.12c-35.25-9.47-69.68-16.81-93.85-17.95-28.06-1.33-53.7,1.82-78.12,6.73C312.54,267.06,296.81,272.67,312.61,279.49Z"/><path class="cls-18" d="M542.8,279.79C499.32,293.21,455.34,307,404.54,307c-50.15,0-112.7-9.67-146.65-29.7h0c-3.16.76-6.33,1.49-9.49,2.19C196.64,291,42,296.7,0,293.31v24.05H649.15C636.47,311,592,294.61,542.8,279.79Z"/><path class="cls-17" d="M0,261.51S41.78,243,88,243.12s88.64,11.71,124.5,28,93.67,41.66,112.41,44.77H0Z"/><path class="cls-19" d="M84.77,243.14l-1.72,0-.86,0-1.73.06-.76,0-2.43.12H77.1l-2.26.14-.78.06-1.67.13-.84.07-1.7.15-.71.07c-.79.07-1.58.16-2.36.24l-.27,0-2.09.24-.76.1-1.6.2-.81.11-1.65.23-.67.09-2.26.34-.38.07c-.63.09-1.25.2-1.87.3l-.76.13-1.51.26-.77.14-1.59.29-.6.11c-.72.14-1.44.27-2.15.42l-.39.08-1.74.35-.7.15-1.44.3-.7.16-1.55.34-.5.12-2,.47-.35.08-1.64.4-.61.15-1.39.35-.58.15-1.54.39-.36.1-1.88.5-.25.07-1.57.43-.49.14-1.34.38-.45.14L24,253l-.16,0-1.73.52-.17.06-1.47.45-.33.1-1.32.42-.28.09-3.06,1h0c-1.22,3.11,2,6,11.21,8.61,32,9,78.55-8.95,97.94-5.75-2.59-.29-21.58,6.34-7.32,8.28,13.17,1.8,74.72.72,153.6,29.8-20.1-8.38-41.63-18-58.37-25.56-35.86-16.27-78.24-27.84-124.5-28-.82,0-1.65,0-2.48,0Z"/><path class="cls-15" d="M0,275.5C30.45,288.67,116.31,294,142.23,290.81c21.54-2.68-20.92,12.72-20.92,12.72s87.32,12.34,203.63,12.34H0Z"/><path class="cls-20" d="M165.88,257.44c25.06,7.29,81.74,29.32,82.52,29.62-12.83-5.57-25.31-11.16-35.87-16-35.86-16.27-78.24-27.84-124.5-28S0,261.51,0,261.51v4.6s32-12,66.45-17.33S140.65,250.11,165.88,257.44Z"/><path class="cls-21" d="M70.37,256.17c-.12,0-2-.41-1.74-.66a2.85,2.85,0,0,1-4.17-.17.86.86,0,0,0-.32-.31c-.23-.1-.48,0-.72.1a1.5,1.5,0,0,1-1.79-1.72,1.35,1.35,0,0,1-1.73-.94,1.38,1.38,0,0,1,1.19-1.58,1.4,1.4,0,0,1-.19-1.8,4.28,4.28,0,0,1,1.49-1.27,2.38,2.38,0,0,1-.68-2.54c.5-.91,1.77-.93,2.8-.83a4.9,4.9,0,0,1-.27-1.61l.46-.34a1,1,0,0,1,.5-1.95,2.88,2.88,0,0,1-1-1.45c-.19-1.17,1.11-1,1.48-1.83s-.19-1.78.33-2.44a1.05,1.05,0,0,1,1.09-.35,3,3,0,0,1-.46-1.32,1,1,0,0,1,.75-1.06,1.09,1.09,0,0,1,1.1.84,8.44,8.44,0,0,1,.2,1.51l1.32,0c0,.65-.22,1.33.28,1.75s1.27.29,1.78.8a1.43,1.43,0,0,1,.16,1.94c-.18.18-.42.3-.53.52-.32.63.65,1.19.73,1.89s-.52,1.23-.2,1.73a1.18,1.18,0,0,0,.51.37l1.53.7c.36.17.77.39.82.79.11.86-1.44,1-1.64,1.84a3.31,3.31,0,0,1,1.42.46,1.12,1.12,0,0,1,.46,1.31c-.09.19-.26.38-.2.59s.41.3.58.51c.3.36-.12.89-.56,1.09s-1,.36-1.09.82a4.49,4.49,0,0,1,1.34.69A1.46,1.46,0,0,1,76,253.6c-.14.7-.75.76-1.18,1.17s-.57,1-1.07,1.39C72.82,256.83,71.42,256.24,70.37,256.17Z"/><path class="cls-20" d="M88.49,259.73l.09.07a1.76,1.76,0,0,0-1.31.54,1,1,0,0,0,.48,1.46.92.92,0,0,0-.94.88.89.89,0,0,0,1,.84.78.78,0,0,0-.88.66.77.77,0,0,0,.77.78,2.54,2.54,0,0,0-1.82.46,1.57,1.57,0,0,0-.57,1.7,1.46,1.46,0,0,0,1.53.87,2.13,2.13,0,0,0-.09,1.87,1.18,1.18,0,0,0,1.63.51,1.05,1.05,0,0,0-.06,1.39,1.18,1.18,0,0,0,1.41.24c.28-.15.51-.42.83-.49s.84.21,1.25.38a2.24,2.24,0,0,0,2.83-1.19,2,2,0,0,0,3.15,0,1.71,1.71,0,0,0-1.52-2.52c.32-.55,1-1.33.56-2a1,1,0,0,0-1.33-.34,1.12,1.12,0,0,0-.52-1.4,1.11,1.11,0,0,0,.86-.84.8.8,0,0,0-.67-.91c.52-.44,1.08-1,1-1.68a1.32,1.32,0,0,0-1-1.05,2.26,2.26,0,0,0-1.47.14,1.33,1.33,0,0,0-.85-1.66c.41-.28.86-.75.66-1.21s-.57-.45-.94-.52a.86.86,0,0,0-.69-1.56c.28-.7-.38-2.4-1.38-1.92a1,1,0,0,0-.43.87,3.09,3.09,0,0,0,.17,1.2.71.71,0,0,0-1,0,.89.89,0,0,0-.11,1,1.22,1.22,0,0,0,.87.58c-.43.19-.91.22-1.35.39a1.67,1.67,0,0,0-1,1.17C87.64,259,88.1,259.45,88.49,259.73Z"/><path class="cls-22" d="M750,315.87V238.43c-37-4.37-69.59,5.91-109.47,23-55.16,23.69-104.13,54.42-152.73,54.42Z"/><path class="cls-23" d="M640.53,261.45c-21,9-41.08,19-60.59,28h0s10.42-4.18,30.87-7.21,41.89-5.6,38.34-10,7.18-3.52,29.28-1.87c19,1.41,52.9-5.9,71.57-17.45V238.43C713,234.06,680.41,244.34,640.53,261.45Z"/><path class="cls-24" d="M750,268.22c-48.68,17.41-108.25,13.57-103.56,19.13s30.84,13.18,21.41,17.06-40.45,11.46-79.78,11.46H750Z"/><path class="cls-17" d="M640.53,261.45l-2.72,1.19c1-.35,33.29-11.18,51.49-15.8,18.5-4.7,46.69-6.63,60.7-3.72v-4.69C713,234.06,680.41,244.34,640.53,261.45Z"/><path class="cls-25" d="M650.05,268.33c-.12,0-2-.4-1.74-.65a2.85,2.85,0,0,1-4.17-.17.86.86,0,0,0-.32-.31c-.23-.1-.48,0-.72.1a1.51,1.51,0,0,1-1.79-1.73,1.34,1.34,0,0,1-1.73-.93,1.38,1.38,0,0,1,1.19-1.58,1.4,1.4,0,0,1-.19-1.8,4.18,4.18,0,0,1,1.49-1.27,2.38,2.38,0,0,1-.68-2.54c.5-.91,1.77-.93,2.8-.83a4.9,4.9,0,0,1-.27-1.61l.46-.34a1,1,0,0,1,.5-1.95,2.88,2.88,0,0,1-1-1.45c-.19-1.17,1.11-1,1.48-1.83s-.19-1.79.33-2.44a1.05,1.05,0,0,1,1.09-.35,3,3,0,0,1-.46-1.32,1,1,0,0,1,.75-1.06,1.1,1.1,0,0,1,1.1.84,8.32,8.32,0,0,1,.2,1.51l1.32,0c0,.65-.23,1.33.28,1.75s1.27.29,1.78.8a1.43,1.43,0,0,1,.16,1.94c-.18.18-.42.3-.53.52-.32.63.65,1.19.73,1.89s-.52,1.23-.2,1.73a1.18,1.18,0,0,0,.51.37l1.53.7c.36.16.77.39.82.79.11.86-1.44,1-1.64,1.83a3.32,3.32,0,0,1,1.42.47,1.12,1.12,0,0,1,.46,1.31c-.09.19-.26.38-.2.59s.41.3.58.5c.3.37-.12.9-.56,1.1s-1,.36-1.09.82a4.27,4.27,0,0,1,1.34.69,1.46,1.46,0,0,1,.55,1.33c-.14.7-.75.75-1.18,1.17s-.57,1-1.07,1.39C652.49,269,651.1,268.41,650.05,268.33Z"/><path class="cls-17" d="M624.53,270.29l.09.07a1.83,1.83,0,0,0-1.32.54,1,1,0,0,0,.49,1.46.92.92,0,0,0-.94.88.89.89,0,0,0,1,.85.76.76,0,0,0-.88.65.77.77,0,0,0,.77.78,2.54,2.54,0,0,0-1.82.46,1.56,1.56,0,0,0-.57,1.71,1.45,1.45,0,0,0,1.53.86,2.13,2.13,0,0,0-.09,1.87,1.17,1.17,0,0,0,1.63.51,1,1,0,0,0-.06,1.39,1.17,1.17,0,0,0,1.4.24c.29-.15.52-.42.83-.49s.85.21,1.26.39a2.25,2.25,0,0,0,2.83-1.2,2,2,0,0,0,3.14,0,1.7,1.7,0,0,0-1.51-2.52c.32-.54.94-1.33.55-2a1,1,0,0,0-1.32-.35A1.12,1.12,0,0,0,631,275a1.1,1.1,0,0,0,.87-.84.8.8,0,0,0-.68-.91c.53-.44,1.09-1,1-1.68a1.31,1.31,0,0,0-.95-1.05,2.26,2.26,0,0,0-1.47.14,1.31,1.31,0,0,0-.85-1.65c.41-.29.86-.76.66-1.22s-.57-.45-.94-.52a.86.86,0,0,0-.69-1.56c.28-.7-.39-2.4-1.39-1.92a1,1,0,0,0-.43.87,3.26,3.26,0,0,0,.17,1.2.7.7,0,0,0-1,0,.89.89,0,0,0-.11,1,1.19,1.19,0,0,0,.87.58c-.43.2-.92.22-1.35.4a1.65,1.65,0,0,0-1,1.16C623.67,269.52,624.14,270,624.53,270.29Z"/><rect class="cls-26" y="315.87" width="750" height="184.13"/><path class="cls-27" d="M750,338.69S480,321.19,266.44,500H750Z"/><path class="cls-27" d="M0,338.69S611.42,348.1,735.55,500H0Z"/><rect class="cls-28" y="315.87" width="750" height="6.21"/><rect class="cls-29" y="315.87" width="750" height="184.13"/><path class="cls-17" d="M750,424.47s-161-52.89-251.89-61.32S306.66,379.9,232.17,399.6,0,407.08,0,407.08V500H750Z"/><path class="cls-30" d="M498.11,363.15c-90.83-8.43-191.45,16.75-265.94,36.45S0,407.08,0,407.08v5c151.33,6.22,209.42.84,264.83-15.79,25.3-7.59,51.38-12.69,78.86-18.71,31.31-6.87,62-10.36,99.69-12.83,75.67-5,153,16.22,212.39,31.54h0C604.61,382.23,542.85,367.3,498.11,363.15Z"/><path class="cls-31" d="M750,424.47s-63.22-15.74-134.68-15.2-94.59,5.63-94.08,0,32.91-14.12,10.8-14.5-81.42-6.33-153.2,13S261.71,469.45,0,472.53V500H750Z"/><path class="cls-32" d="M750,424.47s-161-52.89-251.89-61.32S306.66,379.9,232.17,399.6,0,407.08,0,407.08V500H750Z"/><path class="cls-20" d="M591.67,460.05c-1.51-1.13-3.41-9.46-2-10S593.82,457.66,591.67,460.05Z"/><path class="cls-20" d="M588.07,461.17a6.39,6.39,0,0,0-1.64-4.18c-1.63-1.55-3.45-2.09-3.81-1.45s.64,1.64,1.91,2.68S588.07,461.17,588.07,461.17Z"/><path class="cls-20" d="M595.15,460.05a7.12,7.12,0,0,1,.82-3.79c1-1.63,2.72-2.05,2.82-1.2S596.42,458.4,595.15,460.05Z"/><path class="cls-20" d="M584.07,461.17c-1.81-1.73-5.45-2.23-6.08-1.12S584.07,461.17,584.07,461.17Z"/><path class="cls-20" d="M216.9,404.42c-1.63-1.36-1.72-4.08-1.54-6.08s1.45-4.27,2.36-3.36.91,3.81.73,5.36A15.73,15.73,0,0,1,216.9,404.42Z"/><path class="cls-20" d="M215.29,404.42a7.15,7.15,0,0,0-2.11-3.54c-1.63-1.36-3.81-1.09-3.36,0S214.14,403.24,215.29,404.42Z"/><path class="cls-20" d="M411.68,448c-1.63-1.36-1.72-4.09-1.54-6.09s1.45-4.26,2.36-3.36.91,3.82.73,5.36A15.69,15.69,0,0,1,411.68,448Z"/><path class="cls-20" d="M410.07,448A7.15,7.15,0,0,0,408,444.5c-1.64-1.36-3.82-1.09-3.36,0S408.92,446.86,410.07,448Z"/><path class="cls-20" d="M441.73,390a10.72,10.72,0,0,1-2.36-4.72c-.45-2.64.64-5.09,1.18-5.09s1.73,2.27,1.82,4.91A16.11,16.11,0,0,1,441.73,390Z"/><path class="cls-20" d="M440.82,390a6,6,0,0,0-2.72-2.91c-2.18-1.27-4.08-1.27-4.08-.36S440.82,390,440.82,390Z"/><path class="cls-20" d="M445.28,389.24a8.09,8.09,0,0,1,0-3.54c.45-1.63,1.81-2.28,2-1.41a4.16,4.16,0,0,1-.72,3C445.91,388.24,445.28,389.24,445.28,389.24Z"/><path class="cls-20" d="M447.33,390.37a10.31,10.31,0,0,1,2.22-2.23c1.27-.89,2.54-.83,3-.36s-.09,1.64-1.72,2.19A10.31,10.31,0,0,1,447.33,390.37Z"/><path class="cls-20" d="M576.87,376.78a8.27,8.27,0,0,0-1.18-3.69c-1.09-1.67-2.37-1.7-2.82-1.14S576.87,376.78,576.87,376.78Z"/><path class="cls-20" d="M578.23,376.78a17,17,0,0,1,0-6c.63-2.69,2.45-4.19,3.27-3.62s.36,3.05-.55,4.76S578.23,376.78,578.23,376.78Z"/><path class="cls-20" d="M309.54,401.21a8.27,8.27,0,0,0-1.18-3.69c-1.09-1.67-2.36-1.69-2.81-1.14S309.54,401.21,309.54,401.21Z"/><path class="cls-20" d="M310.91,401.21a17,17,0,0,1,0-6c.63-2.69,2.45-4.19,3.27-3.62s.36,3.06-.55,4.76S310.91,401.21,310.91,401.21Z"/><path class="cls-20" d="M417.06,449.31a8.15,8.15,0,0,0,1.37-3.62c.19-2-.79-2.79-1.5-2.64S417.06,449.31,417.06,449.31Z"/><path class="cls-20" d="M418.13,450.16a17.08,17.08,0,0,1,3.75-4.72c2.17-1.71,4.53-1.76,4.81-.81s-1.61,2.63-3.39,3.4S418.13,450.16,418.13,450.16Z"/><path class="cls-16" d="M0,376.78c19,0,70.66,14.85,110.26,30.4s123,21.22,183.14,33.94S493.51,500,493.51,500H0Z"/><path class="cls-21" d="M0,441.47s40.49,1.17,88.31,7.38,116.13,16.46,126.37,25.34-33.76,12.3-33.76,12.3L277.82,500H0Z"/><path class="cls-20" d="M271.88,440.69c44.92,9,159.46,40.93,221.63,59.31,0,0-140-46.15-200.11-58.88s-143.54-18.38-183.14-33.94S19,376.78,0,376.78v6.3c10.79,0,74.63,17.7,110.68,30.66C146,426.45,227,431.71,271.88,440.69Z"/><path class="cls-33" d="M0,376.78c19,0,70.66,14.85,110.26,30.4s123,21.22,183.14,33.94S493.51,500,493.51,500H0Z"/><path class="cls-34" d="M46.75,416c-2.48-1.86-5.58-15.5-3.31-16.33S50.26,412,46.75,416Z"/><path class="cls-34" d="M40.85,417.78s0-4.31-2.68-6.84-5.64-3.42-6.24-2.38,1,2.7,3.12,4.4S40.85,417.78,40.85,417.78Z"/><path class="cls-34" d="M52.45,416a11.62,11.62,0,0,1,1.34-6.21c1.63-2.67,4.46-3.35,4.6-2S54.53,413.25,52.45,416Z"/><path class="cls-34" d="M34.31,417.78c-3-2.82-8.92-3.64-10-1.82S34.31,417.78,34.31,417.78Z"/><path class="cls-34" d="M357,489.8c2.48-1.86,5.58-15.49,3.3-16.32S353.49,485.88,357,489.8Z"/><path class="cls-34" d="M362.9,491.63s0-4.32,2.68-6.84,5.65-3.42,6.25-2.38-1.05,2.69-3.13,4.39S362.9,491.63,362.9,491.63Z"/><path class="cls-34" d="M351.31,489.8a11.58,11.58,0,0,0-1.34-6.2c-1.64-2.68-4.46-3.36-4.61-2S349.23,487.09,351.31,489.8Z"/><path class="cls-34" d="M369.45,491.63c3-2.83,8.92-3.65,10-1.83S369.45,491.63,369.45,491.63Z"/><path class="cls-34" d="M66.42,469.22c-2.67-2.23-2.82-6.69-2.52-10s2.37-7,3.86-5.5S69.25,460,69,462.53,66.42,469.22,66.42,469.22Z"/><path class="cls-34" d="M63.79,469.22a11.74,11.74,0,0,0-3.46-5.8c-2.68-2.23-6.25-1.78-5.5,0S61.89,467.29,63.79,469.22Z"/><path class="cls-34" d="M167.37,464.91a17.4,17.4,0,0,1-3.86-7.73c-.75-4.31,1-8.33,1.93-8.33s2.83,3.72,3,8A26.46,26.46,0,0,1,167.37,464.91Z"/><path class="cls-34" d="M165.88,464.91a9.89,9.89,0,0,0-4.45-4.76c-3.57-2.08-6.69-2.08-6.69-.59S165.88,464.91,165.88,464.91Z"/><path class="cls-34" d="M173.17,463.72a13.51,13.51,0,0,1,0-5.8c.74-2.67,3-3.73,3.27-2.31a6.81,6.81,0,0,1-1.19,4.84Z"/><path class="cls-34" d="M176.53,465.57a17.49,17.49,0,0,1,3.63-3.66c2.08-1.46,4.16-1.35,4.91-.59s-.15,2.7-2.83,3.59A16.76,16.76,0,0,1,176.53,465.57Z"/><path class="cls-34" d="M276.05,469.22a13.4,13.4,0,0,0-1.93-6c-1.78-2.74-3.86-2.78-4.61-1.87S276.05,469.22,276.05,469.22Z"/><path class="cls-34" d="M278.28,469.22a28,28,0,0,1,0-9.87c1-4.4,4-6.86,5.36-5.93s.59,5-.9,7.81S278.28,469.22,278.28,469.22Z"/><path class="cls-21" d="M679,500c-5.7-5.49-8.16-14.62-10.58-29.09s-1.2-27.73-12.66-38-33.16-21.71-33.16-21.71,34.16,8.69,45,19.55,21.31,39.54,22.52,49.19a97.33,97.33,0,0,1,0,20Z"/><path class="cls-17" d="M653.59,426.45c6.15,4.31,16,10.89,19.5,25.35,3.2,13.08,8.62,41,11.89,48.2h2.77s-4.93-17.83-8.62-32.92S674.55,435.79,653.59,426.45Z"/><path class="cls-35" d="M669.63,407.94a2.35,2.35,0,0,0-1.86-3,4.79,4.79,0,0,0,2.51-1,1.66,1.66,0,0,0,.12-2.4,2,2,0,0,0-1.23-.32,6.77,6.77,0,0,0-2.84.57c.37-.47.93-.76,1.34-1.2a1.26,1.26,0,0,0,.26-1.61,1.33,1.33,0,0,0-.59-.36,4.6,4.6,0,0,0-2.21-.21c.75-.54,1.6-1.31,1.39-2.21a1.85,1.85,0,0,0-2.09-1.13c-.86.09-1.68.48-2.54.56a2.61,2.61,0,0,0,1.13-3.1,3.3,3.3,0,0,0-2.72-2.06,4.46,4.46,0,0,0-3.32,1.08,10.66,10.66,0,0,0-.9.88c.77-.58.29-1.94-.6-2.31a4.2,4.2,0,0,0-2.82.24,1.94,1.94,0,0,0,.37-3.12,2.7,2.7,0,0,0-3.44.17,2.64,2.64,0,0,0,.23-3.27,2.91,2.91,0,0,0-3.17-1,3.21,3.21,0,0,0-2.13,2.62,1.78,1.78,0,0,0-3.33-.1,1.41,1.41,0,0,0-2.39-1.48c.29-.62-.27-1.38-.95-1.55a3.22,3.22,0,0,0-2,.37.87.87,0,0,0,0-1.38,1.92,1.92,0,0,0-1.56-.28.9.9,0,0,0,.34-1.44,1.35,1.35,0,0,0-1.64-.18,2.86,2.86,0,0,0-1.13,1.34,3.51,3.51,0,0,0-2.66-1.88c-1,0-2,.59-1.78,1.38a4.67,4.67,0,0,0,1.61,1.95l7.56,4.23c2,1.14,4.05,2.27,6,3.57a82.72,82.72,0,0,1,7.09,5.61l9,7.7,4.52,3.85C664.67,408.66,668.66,410.6,669.63,407.94Z"/><path class="cls-36" d="M664.31,406.75c.69.67,1.92,1.83,1.39,2.48a1.47,1.47,0,0,1-.74.5c-.44.19-.41.15-.57.63a2.66,2.66,0,0,1-1.07,1.58c-.71.42-1.89,0-1.88-.82a1.67,1.67,0,0,1-.45-3.3,2.4,2.4,0,0,1-1.36-2.1c0,.2-.58.45-.73.5a1.09,1.09,0,0,1-1-.22,2.38,2.38,0,0,1-.6-1c.24.62-1.35,1.12-1.7,1.16a2.37,2.37,0,0,1-2.36-1.3,1.24,1.24,0,0,1-1.52.62c-.19-.07-1-1.19-.82-1.25a1.09,1.09,0,0,1-1.25-.54c-.53-1.06,1.27-3.08,2-3.69-.71.61-2.83,1.82-3.57.65a.67.67,0,0,1,.33-1,3,3,0,0,1-1-.38,1.12,1.12,0,0,1-.62-.89.91.91,0,0,1,.57-.76,2.23,2.23,0,0,1,1-.14,1.14,1.14,0,0,1-.69-1.57,1.39,1.39,0,0,1-2.24-.78,12.52,12.52,0,0,1,0,1.62,1.38,1.38,0,0,1-.19.69c-.33.46-1.83-.06-1.67-.3-.72,1.08-3,1.64-3.27-.14a1.23,1.23,0,0,1,.56-1.23,1,1,0,0,1-1-.09,1,1,0,0,1-.38-1,2.05,2.05,0,0,1,1-1.15,1.33,1.33,0,0,1-1.53-1.21,1.74,1.74,0,0,1,.65-1.3,5.36,5.36,0,0,1,1.3-.73,3.5,3.5,0,0,1-1.64-.26,1.22,1.22,0,0,1-.69-1.38c-.38.62-1.33,1.53-2.13,1.34-.48-.11-.82-.87-.35-1.19-.57,0-1.07.27-1.51-.32-.25-.33-.29-2.1.16-2.33a1.71,1.71,0,0,1-2.35-1.08,2.34,2.34,0,0,1-3.64-.59,1,1,0,0,1-1.18-.11.78.78,0,0,1-.09-.45,1.57,1.57,0,0,1,.29-1,1.9,1.9,0,0,1,.89-.49,1.5,1.5,0,0,1-.95-.37,1,1,0,0,1,0-1.58l2.84,1.53c12.39,6.37,24.14,14.27,33.72,24.4Z"/><path class="cls-37" d="M627.47,380.54c0-.12.6,0,1.54.43s2.3,1.09,4,2A129,129,0,0,1,646.81,391c2.75,1.84,5.65,4,8.58,6.36,1.48,1.2,3,2.48,4.42,3.82.78.69,1.44,1.4,2.17,2.11l1.09,1.08c.35.37.68.77,1,1.16a61,61,0,0,1,7.55,10.37,75.16,75.16,0,0,1,5.68,11.94,107.3,107.3,0,0,1,3.82,12.65c1,4.25,1.71,8.48,2.28,12.58q.2,1.54.39,3.06l.3,3c.2,2,.33,3.91.46,5.82.23,3.79.33,7.38.36,10.69s0,6.35-.12,9-.19,5-.35,7a18.79,18.79,0,0,1-1.41,6,21.77,21.77,0,0,1-.54-6.08c.07-1.92.23-4.24.31-6.9s.15-5.68.13-9-.11-6.83-.33-10.58-.58-7.7-1.1-11.76-1.18-8.24-2.1-12.44a107.3,107.3,0,0,0-3.6-12.48,76,76,0,0,0-5.4-11.8,60.23,60.23,0,0,0-7.21-10.25c-.34-.38-.65-.78-1-1.15s-.71-.73-1.06-1.09c-.71-.71-1.4-1.48-2.1-2.12-1.44-1.35-2.88-2.64-4.32-3.84-2.87-2.43-5.71-4.57-8.41-6.45a130,130,0,0,0-13.58-8.22c-1.7-.9-3-1.57-4-2s-1.37-.8-1.32-.92Z"/><path class="cls-35" d="M696.68,418.2a3.39,3.39,0,0,0-1.48-4.55,3,3,0,0,0,2.28.12c.69-.36,1-1.5.3-1.9a4.89,4.89,0,0,0,1.83.83,1.68,1.68,0,0,0,1.75-.74c.55-1.07-.61-2.2-1.63-2.85a2.23,2.23,0,0,0,2.5-1.86,3,3,0,0,0-1.5-2.91,4.45,4.45,0,0,0-3.38-.34,3.61,3.61,0,0,0,2.7-1.87c.42-1.05-.4-2.54-1.52-2.35a3.47,3.47,0,0,0,3.79-3.38,4.4,4.4,0,0,0-3.49-4.06,1.92,1.92,0,1,0-1-3.69,1.92,1.92,0,0,0-.84-3.18c2,.09,4.44-.69,4.85-2.66a2.72,2.72,0,0,0-3-3.07,2.17,2.17,0,0,0,.44-3.19,3,3,0,0,0-3.39-.62,1.72,1.72,0,0,0,.29-3.06,2.06,2.06,0,0,0,2.91-1.39,2.1,2.1,0,0,0-2.3-2.29,2,2,0,0,0,1.66-2.4,3.63,3.63,0,0,0-2.22-2.34,1.57,1.57,0,0,0,.07-3.11l1.57,0a2.86,2.86,0,0,0,.08-1.64,2.46,2.46,0,0,0,3.26-1.71,2.09,2.09,0,0,0-2.67-2.22,1.79,1.79,0,0,0-.21-2.78,1.51,1.51,0,0,0-.31-3c-.7,2.08-1.69,4.42-2.39,6.5a67.82,67.82,0,0,0-2,6.52c-.89,3.83-1.1,7.78-1.65,11.67-.61,4.37-1.65,8.67-2.41,13a106.43,106.43,0,0,0-1.58,16.7c0,2.56-.26,5.13-.11,7.69.12,2.08,0,5.24,1.28,7C691.05,421.56,695.36,420.84,696.68,418.2Z"/><path class="cls-36" d="M686.52,417.64a2.34,2.34,0,0,1-.39-2.58,2.13,2.13,0,0,1-2.92-1.9,2.87,2.87,0,0,1,2.76-2.63,7.79,7.79,0,0,1-2.59.16,2.62,2.62,0,0,1-2-1.44c-.54-1.35.54-2.77,1.55-3.82a1.6,1.6,0,0,1-2-1.48,2.51,2.51,0,0,1,1.68-2.23,2.5,2.5,0,0,1-2-2.7,3.3,3.3,0,0,1,2.25-2.66,4.94,4.94,0,0,1,3.6.26,1.79,1.79,0,0,1,.57-3.09,1.23,1.23,0,0,1-1.81-.66,2.45,2.45,0,0,1,.48-2.13,7.08,7.08,0,0,1-4-1.43,4.12,4.12,0,0,1-1.56-3.79,2.94,2.94,0,0,1,3-2.42,5,5,0,0,1,2.58,1.56,1.59,1.59,0,0,1,1-2.64,2.11,2.11,0,0,1-1.69-2.38,1.57,1.57,0,0,1,2.53-.77,3.46,3.46,0,0,1-1.17-4.09,2.57,2.57,0,0,1,3.86-.88,2.28,2.28,0,0,1-.69-1.88,1.2,1.2,0,0,1,1.55-.93,3,3,0,0,1,1-5.92,1.89,1.89,0,0,1-.86-3.54,2.66,2.66,0,0,1-1.58-3.84,3.64,3.64,0,0,1,4.28-1.38.88.88,0,0,1,.09-1.29,2.37,2.37,0,0,1,1.38-.45,1.78,1.78,0,1,1,1.26-3.3,3.66,3.66,0,0,1-.08-1.54,1.24,1.24,0,0,1,1-1c.52,0,1,.6.73,1-1,1.65-1.3,4.16-1.76,6-.56,2.28-1.05,4.58-1.49,6.88-.89,4.62-1.58,9.27-2.26,13.92l-.75,5c-.44,3-.88,6-1.29,9a76.67,76.67,0,0,0-.49,8.57q-.13,6-.49,12a42.31,42.31,0,0,1-.4,5.86C689.23,418.51,687.54,418.72,686.52,417.64Z"/><path class="cls-37" d="M698.92,348.93c.13.05.05.64-.32,1.67s-.85,2.54-1.4,4.51-1.16,4.35-1.71,7.13-1.11,5.93-1.6,9.39-.92,7.22-1.36,11.2-.89,8.19-1.29,12.53c-.79,8.71-1.37,18-1.72,27.32S689,441.31,689.1,450s.21,16.88.48,23.87c.14,3.49.29,6.69.44,9.52s.31,5.3.42,7.34a23.29,23.29,0,0,1-.53,6.46,22,22,0,0,1-1.42-6.33c-.18-2-.29-4.52-.45-7.36s-.3-6.06-.43-9.56c-.26-7-.46-15.18-.43-23.94s.27-18.1.74-27.43,1.2-18.65,2.12-27.36c.46-4.36,1-8.56,1.48-12.54s1-7.74,1.53-11.21,1.13-6.62,1.74-9.41,1.25-5.19,1.83-7.15,1.11-3.5,1.48-4.52.69-1.53.82-1.49Z"/><path class="cls-16" d="M682.85,500s-.8-14.43,6-34.8,27-37,38.12-38.75c0,0-7.87,2.86-13.92,14.35s-8.67,19.77-9.07,30.05A43.71,43.71,0,0,1,691.52,500Z"/><path class="cls-17" d="M707.64,441.47c-3.54,3.91-21,26.19-21.61,58.53h2.8s.27-9.52,3.72-25S701.43,450.24,707.64,441.47Z"/><path class="cls-16" d="M642.77,464.92c6.42,8,9.7,14.05,11.55,22a34.06,34.06,0,0,0,6.11,13.1h13.22a92.34,92.34,0,0,0-8.43-19.75c-8.38-14.79-26.52-24.67-35.4-24.39C629.82,455.86,636.35,456.9,642.77,464.92Z"/><path class="cls-17" d="M663.85,488.39c2,4.61,3.46,8.54,4.49,11.61h2.52c-6.57-20.87-20.72-33.11-23.74-35.38A67.72,67.72,0,0,1,663.85,488.39Z"/><path class="cls-21" d="M715.71,465c-9.53,5.95-21.71,24.68-24.16,31.36-.45,1.22-.84,2.46-1.18,3.69h15.09c1-2,2.07-4.17,3.06-6.56,4.1-9.92,5.43-19.58,15.28-25s27.23-10,27.23-10S725.24,459,715.71,465Z"/><path class="cls-17" d="M698.23,500c3.55-7.2,7.52-15.82,10.11-21,4.91-9.73,13-12.8,18.08-14.86-16.48,3.2-19.79,14.62-24.91,24.77-1.85,3.67-3.87,7.57-5.71,11.05Z"/><path class="cls-25" d="M74.05,500s-.8-14.43,6-34.8,27-37,38.12-38.75c0,0-7.87,2.86-13.92,14.35s-8.67,19.77-9.07,30.05A43.71,43.71,0,0,1,82.72,500Z"/><path class="cls-16" d="M98.84,441.47c-3.54,3.91-21,26.19-21.61,58.53H80s.27-9.52,3.72-25S92.63,450.24,98.84,441.47Z"/><path class="cls-25" d="M34,464.92c6.42,8,9.7,14.05,11.55,22A34.06,34.06,0,0,0,51.63,500H64.85a92.34,92.34,0,0,0-8.43-19.75C48,465.46,29.9,455.58,21,455.86,21,455.86,27.55,456.9,34,464.92Z"/><path class="cls-16" d="M55.05,488.39c2,4.61,3.46,8.54,4.49,11.61h2.52c-6.57-20.87-20.73-33.11-23.74-35.38A67.72,67.72,0,0,1,55.05,488.39Z"/><path class="cls-38" d="M106.91,465c-9.53,5.95-21.71,24.68-24.16,31.36-.45,1.22-.84,2.46-1.18,3.69H96.66c1-2,2.07-4.17,3.06-6.56,4.1-9.92,5.43-19.58,15.28-25s27.23-10,27.23-10S116.44,459,106.91,465Z"/><path class="cls-17" d="M89.43,500C93,492.8,97,484.18,99.54,479c4.91-9.73,13-12.8,18.08-14.86-16.48,3.2-19.79,14.62-24.91,24.77-1.85,3.67-3.87,7.57-5.71,11.05Z"/><path class="cls-39" d="M248.66,363.66c1.32,0,3.49-.43,2.13-1.85-1.06-1.1-6.48-.59-7.67-.13a1.4,1.4,0,0,0-2.76-.45l-1.18-.81-.93.77a4.47,4.47,0,0,0-7.1-.41c-.45-1.09-1.91-1.25-3.09-1.23l-4.12.06a3.44,3.44,0,0,0-2.61-2.19c-1.19-.08-2.38,1.27-1.79,2.31a6.64,6.64,0,0,0-3.63-2.39c-1.47-.22-3.19,1-2.95,2.41a10.57,10.57,0,0,0-3.6-1.68,3.56,3.56,0,0,0-3.58,1.21,3.36,3.36,0,0,0-5.09-2.57,5,5,0,1,0-9.15,3.05,1.52,1.52,0,0,0-2.64,1.47A3.19,3.19,0,0,0,186,358.7a2.2,2.2,0,0,0-2.08,2.8,6,6,0,0,0-2.94-1.88c-1.17-.19-2.57.66-2.46,1.84a3.47,3.47,0,0,0-1.78-1.44c-.77-.17-1.72.49-1.5,1.24a4.61,4.61,0,0,0-2.11-1,1.59,1.59,0,0,0-1.78,1.17,4.54,4.54,0,0,0-7.32.83c-.59,1.28,8.75,1.39,9.93,1.39h74.67Z"/><path class="cls-40" d="M650,348.1c1.31,0,3.49-.44,2.13-1.86-1.06-1.1-6.48-.59-7.67-.13a1.4,1.4,0,0,0-2.77-.44l-1.18-.81-.92.76a4.48,4.48,0,0,0-7.11-.4c-.44-1.1-1.9-1.25-3.08-1.23l-4.13.06a3.39,3.39,0,0,0-2.61-2.19c-1.18-.09-2.38,1.27-1.79,2.3a6.64,6.64,0,0,0-3.63-2.39c-1.46-.21-3.18,1-3,2.42a10.46,10.46,0,0,0-3.59-1.69,3.6,3.6,0,0,0-3.59,1.21,3.35,3.35,0,0,0-5.08-2.57,5,5,0,1,0-9.15,3.05,1.58,1.58,0,0,0-2-.44,1.56,1.56,0,0,0-.66,1.91,3.2,3.2,0,0,0-2.88-2.52,2.19,2.19,0,0,0-2.07,2.8,5.88,5.88,0,0,0-2.94-1.88c-1.17-.19-2.57.66-2.47,1.84a3.42,3.42,0,0,0-1.78-1.44c-.76-.18-1.71.48-1.5,1.23a4.63,4.63,0,0,0-2.1-1,1.6,1.6,0,0,0-1.78,1.17,4.55,4.55,0,0,0-7.33.84c-.59,1.28,8.75,1.39,9.94,1.39H650Z"/><path class="cls-39" d="M132.59,347.84c.51,0,1.53-1.87,1.4-2.31-.57-2-3.85-.15-4.45.92a2.05,2.05,0,0,0-3.47-1.18l-2.38-1-1.33,1a4.62,4.62,0,0,0-2.89-3c-1.41-.34-3.14.82-2.9,2.24a3.05,3.05,0,0,0-5.63.23c-.64-.84-1.68-1.78-2.61-1.27-.43.24-.68.75-1.15.91-.88.29-1.52-.8-2.1-1.53-1.67-2.07-5.66-1.12-6.23,1.48A6,6,0,0,0,96.12,343a2.1,2.1,0,0,0-2.35,1.5c-.75-1.42-1.62-3-3.13-3.53s-3.64.62-3.27,2.19a5.35,5.35,0,0,0-2.25-1.33A1.83,1.83,0,0,0,83,342.93a1.87,1.87,0,0,0-2.49,2.32,1.84,1.84,0,0,0-2.76.08c-.42-1.32-.91-2.75-2.07-3.49s-3.14-.23-3.23,1.15a5.7,5.7,0,0,0-4.62-2.24,3.64,3.64,0,0,0-3.43,3.41,2.37,2.37,0,0,0-3.95-.35c.44-2-2.26-3.87-4-2.75a2.48,2.48,0,0,0-4.84-1,8.68,8.68,0,0,0-2.9-2.79,3,3,0,0,0-3.69.62c-.79,1.1.08,3.06,1.43,2.87a1.26,1.26,0,1,0,0,2.51,3.49,3.49,0,0,0,0,2.12,7.35,7.35,0,0,0-3.32-2.21c-1.32-.3-3,.4-3.16,1.73a6.41,6.41,0,0,1-2.25-.87,2.84,2.84,0,0,0-2.33-.28c-.74.33-1.08,1.49-.41,2a5.5,5.5,0,0,0-5.93-.41,4.71,4.71,0,0,0-5.48,2c0-.07,10.13.54,11.34.54h97.62Z"/><path class="cls-13" d="M493.32,297.33c-5.52-.47-3.89,4.3-3.89,4.3a1.23,1.23,0,0,0-1.28,1,1.74,1.74,0,0,0-2.66,0,2.83,2.83,0,0,0,.59,4.33,2.54,2.54,0,0,0-2.65,1.57s-2.27-.88-3.15.4.79,2.36.79,2.36-2.07.69-1.78,1.87,1,1.08,1,1.08-.79,1.68.69,2.17a1,1,0,0,0-.2,1.38s-.94-.5-1.5,0,0,1.87,0,1.87-1.16,0-1.35.88c0,0-.69-1.77-1.77-1.38a1.38,1.38,0,0,0-1,1.38s-2-3.64-4.72-2.36a2.56,2.56,0,0,0-3.35-1.48c-2.56.79-1.77,2.37-1.77,2.37s-1.38.59-1.38,1.47a1.78,1.78,0,0,0,1,1.38s-1.58.23-1.87,1.44c0,0-1.18-1.08-2-.42a2.11,2.11,0,0,0-.59,1.83,2.64,2.64,0,0,0-2.66,0,2.39,2.39,0,0,0-1.47,2.17,3,3,0,0,0-2.56-.59,1.47,1.47,0,0,0-1,1.57s-2.75-.65-2.65,1.84h44.09V298.83Z"/><path class="cls-25" d="M643.1,308.51a6.61,6.61,0,0,1,6.27-2.22,3,3,0,0,1,2.06,3.52s1.81-2,3.26-1.3a2.32,2.32,0,0,1,1.09,2.49s2.53-2.87,5.79-1.19,1.81,7,.72,8.07c0,0,1.93-.6,2.9.72s0,4,0,4a6.32,6.32,0,0,1,2.9-.13,2,2,0,0,1,1.33,1.91s2.41-2.78,4.22-2.78a2.61,2.61,0,0,1,2.42,1.3s1.2-1.78,2.53-1.06,1.48,1.48,1.48,1.48,1.54-1.26,4.69.81c1.79,1.17,1.91,3.88,1.91,3.88a5.39,5.39,0,0,1,3.75-.49,3.68,3.68,0,0,1,2.18,2.2H643.1Z"/><polygon class="cls-41" points="537.18 329.74 494.26 329.74 494.26 300.24 501.66 285.29 515.72 272.26 529.78 285.29 537.18 300.24 537.18 329.74"/><polygon class="cls-42" points="514.02 272.26 514.02 273.83 526.99 285.71 534.68 300.24 537.18 300.24 529.78 285.29 515.72 272.26 514.02 272.26"/><rect class="cls-43" x="537.18" y="300.24" width="61.23" height="29.51"/><polygon class="cls-44" points="602.32 300.24 594.92 285.29 580.86 272.26 515.72 272.26 529.78 285.29 537.18 300.24 602.32 300.24"/><polygon class="cls-45" points="594.92 285.29 529.78 285.29 537.18 300.24 602.32 300.24 594.92 285.29"/><polygon class="cls-46" points="491.03 300.24 498.43 285.29 512.49 272.26 515.72 272.26 501.66 285.29 494.26 300.24 491.03 300.24"/><path class="cls-47" d="M515.72,305h0a8.54,8.54,0,0,0-8.54,8.54v16.23h17.08V313.51A8.54,8.54,0,0,0,515.72,305Z"/><rect class="cls-47" x="537.18" y="300.24" width="61.23" height="3.3"/><rect class="cls-41" x="598.41" y="315.5" width="45.65" height="14.24"/><rect class="cls-43" x="598.41" y="315.5" width="45.65" height="2.44"/><path class="cls-44" d="M598.41,315.5h47.81v-5.7a5.68,5.68,0,0,0-5.69-5.68H598.41Z"/><rect class="cls-48" x="598.41" y="304.12" width="4.73" height="25.63"/><polyline class="cls-49" points="342.56 327.01 353.56 248.78 360.6 248.78 371.6 327.01"/><line class="cls-49" x1="357.08" y1="248.78" x2="357.08" y2="328.08"/><polyline class="cls-49" points="343.69 318.97 357.08 304.62 347.91 289.27 357.08 274.74 351.6 262.94 357.08 251.18"/><polyline class="cls-49" points="353.15 251.68 357.08 262.06 349.63 276.67 357.08 289.74 345.81 304.04 357.08 318.97"/><polyline class="cls-49" points="370.52 318.97 357.08 304.62 366.25 289.27 357.08 274.74 362.6 262.9 357.08 251.18"/><polyline class="cls-49" points="360.94 251.18 357.08 262.06 364.52 276.67 357.08 289.74 368.41 304.04 357.08 318.97"/><path class="cls-47" d="M351.86,246.84H362.3a1,1,0,0,1,1,1h0a1,1,0,0,1-1,1H351.86a1,1,0,0,1-1-1h0A1,1,0,0,1,351.86,246.84Z"/><rect class="cls-50" x="355.89" y="238.43" width="2.39" height="9.38"/><path class="cls-47" d="M370.09,225.25v-1.2a.47.47,0,0,0-.57-.46l-7.3,1.2v.92l7.3,1.21a.49.49,0,0,0,.57-.47Z"/><path class="cls-47" d="M367.6,217.61l-.7-1a.47.47,0,0,0-.73,0l-5.2,5.26.54.75,6.61-3.32a.47.47,0,0,0,.19-.7Z"/><path class="cls-47" d="M361.1,212.88l-1.14-.37a.48.48,0,0,0-.62.39l-1.11,7.32.88.28,3.4-6.57a.48.48,0,0,0-.27-.68Z"/><path class="cls-47" d="M353.06,212.88l-1.14.37a.48.48,0,0,0-.27.68l3.4,6.57.88-.28-1.11-7.32a.48.48,0,0,0-.62-.39Z"/><path class="cls-47" d="M346.56,217.61l-.71,1a.47.47,0,0,0,.19.7l6.61,3.32.54-.75-5.2-5.26a.47.47,0,0,0-.73,0Z"/><path class="cls-47" d="M344.07,225.25v1.2a.49.49,0,0,0,.57.47l7.3-1.21v-.92l-7.3-1.2a.47.47,0,0,0-.57.46Z"/><path class="cls-47" d="M346.56,232.89l.7,1a.47.47,0,0,0,.73,0l5.2-5.26-.54-.75L346,231.22a.47.47,0,0,0-.19.7Z"/><path class="cls-47" d="M353.06,237.62l1.14.37a.48.48,0,0,0,.62-.39l1.11-7.32-.88-.28-3.4,6.57a.48.48,0,0,0,.27.68Z"/><path class="cls-47" d="M361.1,237.62l1.14-.37a.48.48,0,0,0,.27-.68l-3.4-6.57-.88.28,1.11,7.32a.48.48,0,0,0,.62.39Z"/><path class="cls-47" d="M367.6,232.89l.71-1a.47.47,0,0,0-.19-.7l-6.61-3.32-.54.75,5.2,5.26a.47.47,0,0,0,.73,0Z"/><path class="cls-47" d="M355.74,225.25a1.34,1.34,0,1,1,1.34,1.34A1.34,1.34,0,0,1,355.74,225.25Z"/><path class="cls-16" d="M0,315.87V273.22s4-4.26,9.08-1.59c2.89,1.52,4.53,7.49,1.36,10.44,0,0,4.76,0,3.85,3.86,0,0,2.73-2.27,4.77-.23s-.91,4.31-.91,4.31,3,1.05,1.63,3.47a2.69,2.69,0,0,1,3.13-1.2s-.64-5,3.43-5,7.24,3.85,5.42,7.48c0,0,3.86,1.82,2.05,4.09,0,0,.68-2.27,3.85-1.59a5.39,5.39,0,0,1,4.31-5.9s-.22-6.35,5.22-8.62,7.72-.23,7.72-.23a3.93,3.93,0,0,1,4.31-2c3,.68,2.26,4.08,2.26,4.08s2.73-.68,4.32,1.14,0,5.9,0,5.9a3.05,3.05,0,0,1,3.4,1.88,4.59,4.59,0,0,1,5.22-2.34c3.63.91,3,5,3,5s.9-.68,2.95.22S81.68,300,81.68,300s3.17-2,5-.9a6,6,0,0,1,2.27,3.63A8.94,8.94,0,0,1,94.61,301a4.91,4.91,0,0,1,3.86,3.3s1.58-2,3-1.13,2.72,5.22,2.72,5.22,3.17-.23,5,1.59a5.62,5.62,0,0,1,1.81,3.63s6.36,0,6.36,2.26Z"/><path class="cls-21" d="M88.39,315.09c-2.28-1.77-5.65-2.41-8.09-.85a6.82,6.82,0,0,0-12.17-1.08A3.31,3.31,0,0,0,63,311.82a2.76,2.76,0,0,0-5.24-1.25,6.88,6.88,0,1,0-13.38-.16A3.44,3.44,0,0,0,42.64,309a3.5,3.5,0,0,0-3.71,1.08,5.2,5.2,0,0,0-4.39-2.48,5.26,5.26,0,0,0-4.39,2.5,6.86,6.86,0,0,0-5-6.19A6.86,6.86,0,0,0,17.75,307a5,5,0,0,0-2.49-5.35,5,5,0,0,0-5.81,1,9.67,9.67,0,0,0,.31-5.38,5,5,0,0,0-1.68-2.95,2.58,2.58,0,0,0-3.19,0,7.26,7.26,0,0,0,.53-9.8A7.07,7.07,0,0,0,0,282.26v33.61H89.28A8.28,8.28,0,0,0,88.39,315.09Z"/><path class="cls-51" d="M510.34,151.53a9.86,9.86,0,0,0-5.34-6.36,9.67,9.67,0,0,0-4.12-1.08A18.57,18.57,0,0,0,497,145c-1.59-2.89-1.59-5.95-3.57-8.74a18.09,18.09,0,0,0-6.44-5.63,10.57,10.57,0,0,0-6.2-1.3c-3.29.48-5.86,3.11-7.53,6a22.88,22.88,0,0,0-1.5,19.6,2.27,2.27,0,0,0-1.38,3.65,3.62,3.62,0,0,0-5.78.57c-1.41-2.48-3.89-4.65-6.73-4.54s-5.34,3.55-3.79,5.94c-1.17-2.27-5.36-1.48-5.62,1.05.14-3.45-3.9-5.55-7.35-5.78-2.7-.18-5.67.35-7.46,2.38s-1.57,5.82.91,6.91a3.53,3.53,0,0,0-5.43,4.27c-1.17-1.29-3.21-2-4.65-1.05s-1,3.82.73,3.82c-2.49,0-3.32.51-5.33,1.61a7.7,7.7,0,0,1-6,.63c-.91-.28-1.88-.75-2.76-.39-.08.37-.16.74-.25,1.11l-3.43,0a2.58,2.58,0,0,0-1.14.18.89.89,0,0,0-.53.94c.13.56.86.69,1.44.7,7.16.18,13.56,1.42,20.75,0,4.71,7,15.23,7.76,21.06,1.78a1.52,1.52,0,0,1,1-.62,1.71,1.71,0,0,1,.66.18,4.49,4.49,0,0,0,5.57-2.33,3.09,3.09,0,0,0,3.14,2.38,4.72,4.72,0,0,0,3.57-2.14A14.2,14.2,0,0,0,479.83,178c.4-.24,4.72-3.53,4.55-3.7a3.72,3.72,0,0,0,5.5-.75,6.82,6.82,0,0,0,5,3c.49.05,5.62,0,5-1.36a9.09,9.09,0,0,0,12.2,3.84,10.51,10.51,0,0,0,18.63-2.7,14,14,0,0,0,13.66.21c-.36,2.35,2.77,4.36,4.75,3,1.45,2.52,6.18,1.37,6.31-1.53,1.62,2.1,5.63,1.22,6.23-1.37.71,1.54,2.79,1.88,4.43,1.49s3.15-1.32,4.82-1.54c3.53-.47,7.69,2,10.34-.34l10.8.45,16.57.69c1.93.08,3.82,0,5.75-.1a.68.68,0,0,0,.32-.06.52.52,0,0,0,.08-.76,1.26,1.26,0,0,0-.74-.38,7,7,0,0,0-2.24-.19c-.48,0-1,.1-1.38-.24s-.31-1-.65-1.35a1.64,1.64,0,0,0-1.47-.29l-4,.48a1.46,1.46,0,0,1-.72-.05,1.52,1.52,0,0,1-.53-.54c-1.22-1.56-2.85-1.27-4.55-1.64-3.38-.69-6.86-1.38-10.25-.74-1.3.24-2.64.68-3.91.32a12.14,12.14,0,0,1-2.92-1.79c-2.29-1.43-5.16-1.42-7.85-1.36-3,.07-6.68.56-7.83,3.34a6.79,6.79,0,0,0-8.54,1.17,5.77,5.77,0,0,0-5.78-4.14c.42-2.45-2.17-4.57-4.66-4.64s-4.76,1.28-6.88,2.57c1.13-.46.91-2.21.09-3.11s-2-1.48-2.59-2.56a11.28,11.28,0,0,1-.62-2.4c-.95-3.48-6.22-4.75-8.64-2.07.61-3-.1-6.45-2.54-8.27s-6.66-1-7.59,1.87A4.89,4.89,0,0,0,510.34,151.53Z"/><path class="cls-52" d="M580.28,174a7,7,0,0,0-9.36.35,4.05,4.05,0,0,0-4.95.6A9.63,9.63,0,0,0,555,177.51c-.42-2.12-3.95-2.58-4.89-.63q-.61-2.87-1.21-5.75a2.63,2.63,0,0,0-3.66,2.25c-1.63-2.28-5.7,1.56-7.87-.21-.65-.53-.88-1.42-1.43-2.06-1.71-2-4.94-.45-7,1.18,1.37-3.61-3.79-7-7.26-5.35s-4.74,6.1-4.38,9.94a4.36,4.36,0,0,0-5.39-.2A7.71,7.71,0,0,0,501,172.79c2.44-2.81-.48-7.61-4.16-8.1s-7.15,1.85-9.79,4.46a4.79,4.79,0,0,0-5.94-.48c1.21-1.33-.15-3.75-1.94-3.86s-3.34,1.44-3.85,3.17a12.15,12.15,0,0,0,.08,5.33c-1.73,1.27-4-.49-5.49-2s-4.11-3-5.5-1.36c-.27-2-2.66-3.24-4.7-3s-3.78,1.57-5.42,2.83c-1.34-2.34-4.87-2.65-7.11-1.15s-3.34,4.24-3.7,6.91a5.62,5.62,0,0,0-7.83.2c-1.92-2.76-6.13-1.61-9.4-.82a21.56,21.56,0,0,1-10.16.26,15.16,15.16,0,0,1-2.14-.79l-.07,0c-.91-.28-1.88-.75-2.76-.39-.08.37-.16.74-.25,1.11l-3.43,0a2.58,2.58,0,0,0-1.14.18.89.89,0,0,0-.53.94c.13.56.86.69,1.44.7,7.16.18,13.56,1.42,20.75,0,4.71,7,15.23,7.76,21.06,1.78a1.52,1.52,0,0,1,1-.62,1.71,1.71,0,0,1,.66.18,4.49,4.49,0,0,0,5.57-2.33,3.09,3.09,0,0,0,3.14,2.38,4.72,4.72,0,0,0,3.57-2.14A14.2,14.2,0,0,0,479.83,178c.4-.24,4.72-3.53,4.55-3.7a3.72,3.72,0,0,0,5.5-.75,6.82,6.82,0,0,0,5,3c.49.05,5.62,0,5-1.36a9.09,9.09,0,0,0,12.2,3.84,10.51,10.51,0,0,0,18.63-2.7,14,14,0,0,0,13.66.21c-.36,2.35,2.77,4.36,4.75,3,1.45,2.52,6.18,1.37,6.31-1.53,1.62,2.1,5.63,1.22,6.23-1.37.71,1.54,2.79,1.88,4.43,1.49s3.15-1.32,4.82-1.54c3.53-.47,7.69,2,10.34-.34l10.8.45,16.57.69c1.93.08,3.82,0,5.75-.1a.62.62,0,0,0,.3-.06A91.22,91.22,0,0,0,580.28,174Z"/><path class="cls-51" d="M177.83,141.44a8.74,8.74,0,0,0-15.45,4.92c-1.36-1.09-3.71.86-2.89,2.4-.86-1.91-4.26-1.64-4.82.38a2.75,2.75,0,0,0-3.23-1.31,2.83,2.83,0,0,0-1.74,3c-1.87-.47-2.56.75-4.29,1-1.16.17-2.35-.78-3.44-.35-.2.08-.4.26-.34.47s.2.22.34.27a14.67,14.67,0,0,0,8.57.54,6.93,6.93,0,0,0,8.35-.58c1.35,2,4.05,2.67,6.42,2.27a19,19,0,0,0,6.52-2.93c.92,2.41,3.73,3.64,6.3,3.55s5-1.24,7.28-2.37c2.36,3.92,8.76,1.44,11.48-.7a2.47,2.47,0,0,0,2.71,1.51,3.57,3.57,0,0,0,2.54-2c-.41.84,9.14,4.54,8,.22a4.19,4.19,0,0,0,6.89-.4,5.3,5.3,0,0,0,5.39,1.9,15.69,15.69,0,0,0,5.43-2.58,8.38,8.38,0,0,0,11,.45,2.65,2.65,0,0,0,4.08-.45c.42,1.91,3.75,2,4.32.17a1.94,1.94,0,0,0,3.84,0,4.22,4.22,0,0,0,5,.12,7.55,7.55,0,0,0,8.6-1.15,4.25,4.25,0,0,0-4.38.64c-.27-1.35-2-1.81-3.36-1.65-1.2.15-2.77.78-4,.28s-1.83-1.52-3.33-1.66a5.23,5.23,0,0,0-3.73,1.14c-.25-.16-.26-.51-.35-.8a2,2,0,0,0-1.79-1.27c-.79-.07-2.69,0-3.25.68-1.93-1.72-3.79-3.52-6.4-4.14s-5.55.31-6.66,2.64a3.88,3.88,0,0,0-5.91-.95,7.19,7.19,0,0,0-4.44-4.8,4.74,4.74,0,0,0-5.71,2.41,1.4,1.4,0,0,0-2.49.38,3.65,3.65,0,0,0-5.28-2,1.87,1.87,0,0,0-2-3.16c1.4-.67,1.13-3-.19-3.81A4.61,4.61,0,0,0,197,134c1.72-2.08-.06-5.86-2.75-5.86a2.72,2.72,0,0,0,.83-3.13,4.34,4.34,0,0,0-2.45-2.34,6.16,6.16,0,0,0-8.22,7.62,6.61,6.61,0,0,0-3.61,1c-1,.79-1.38,2.47-.42,3.31a12.73,12.73,0,0,0,.22,2.6,6.21,6.21,0,0,0,1.81,2,4.93,4.93,0,0,0-1.49-.45C180.13,138.7,176.87,140.27,177.83,141.44Z"/><path class="cls-52" d="M248.36,150c-.56-1.1-2.23-.34-3.12.52a1.71,1.71,0,0,0-3.39-.22,2.07,2.07,0,0,0-3.51-.87,7.15,7.15,0,0,0-6.24,0,2.23,2.23,0,0,0-4.34-.44c-.23-1.05-1.75-1.32-2.64-.71a5,5,0,0,0-1.62,2.72,1.15,1.15,0,0,0-1.5-.56c.6-.79-.23-2-1.21-2.14a4.37,4.37,0,0,0-2.74.93c-1-.18-.79-1.74-1.21-2.71-.6-1.38-2.69-1.3-3.93-.44s-2.1,2.21-3.42,2.95a2.54,2.54,0,0,0-4.28-.45,2.37,2.37,0,0,0-4.64,0,3.36,3.36,0,0,0-3.92-1.76,7.47,7.47,0,0,0-3.76,2.69,3.29,3.29,0,0,0-3.49-1.56c1.11-1.76-.39-4.31-2.43-4.71a5.5,5.5,0,0,0-5.31,2.57,13,13,0,0,0-1.48,3.07,9.28,9.28,0,0,0-.86,2.61,3.54,3.54,0,0,0-6-1.77,3.63,3.63,0,0,0-.08-1.23,1.84,1.84,0,0,0-3.52,0c0-2.31-1.48-3.09-3.58-2.3a5.21,5.21,0,0,0-3.27,4.93,10.91,10.91,0,0,0-9.76.95c-1.63-1.56-4.32.44-6.54,0a4.06,4.06,0,0,1-.89-.3,2.44,2.44,0,0,1-.26.06c-1.16.17-2.35-.78-3.44-.35-.2.08-.4.26-.34.47s.2.22.34.27a14.67,14.67,0,0,0,8.57.54,6.93,6.93,0,0,0,8.35-.58c1.35,2,4.05,2.67,6.42,2.27a19,19,0,0,0,6.52-2.93c.92,2.41,3.73,3.64,6.3,3.55s5-1.24,7.28-2.37c2.36,3.92,8.76,1.44,11.48-.7a2.47,2.47,0,0,0,2.71,1.51,3.57,3.57,0,0,0,2.54-2c-.41.84,9.14,4.54,8,.22a4.19,4.19,0,0,0,6.89-.4,5.3,5.3,0,0,0,5.39,1.9,15.69,15.69,0,0,0,5.43-2.58,8.38,8.38,0,0,0,11,.45,2.65,2.65,0,0,0,4.08-.45c.42,1.91,3.75,2,4.32.17a1.94,1.94,0,0,0,3.84,0,4.22,4.22,0,0,0,5,.12,7.46,7.46,0,0,0,4.83.71,30.29,30.29,0,0,0-6-1.6C252.69,149.66,250.43,149.26,248.36,150Z"/><path class="cls-53" d="M353.25,317.63c-.23-.08-.67.07-.83-.17-.05-.08,0-.21,0-.3-.14-.24-.68-.3-.93-.32-.1,0-.21,0-.26-.09a.31.31,0,0,1-.05-.12.75.75,0,0,1,.09-.51.37.37,0,0,0-.41.37.28.28,0,0,1-.11-.26,1.5,1.5,0,0,1,.1-.59.28.28,0,0,0-.31,0,.51.51,0,0,0-.17.28c-.11.4.08.67.14,1a1.22,1.22,0,0,1-.47,1,25.17,25.17,0,0,0-2,2.37,1.27,1.27,0,0,0-.2.36.87.87,0,0,0,.54,1,2.56,2.56,0,0,0,1.2.1l.09-.08c.37,0,.67.32,1,.49a5.05,5.05,0,0,0,1.41.29,1.54,1.54,0,0,1,1.2.72c.07.16.1.34.18.5s.19.25.26.4a2,2,0,0,1,.13.55,4.49,4.49,0,0,0,.55,1.39,3,3,0,0,0,.76,1,2.09,2.09,0,0,0,.81.34c.29,0,.6,0,.57.4l-.06.87a1.09,1.09,0,0,0,0,.44,2.85,2.85,0,0,0,.16.3,1.41,1.41,0,0,1,0,1,7.91,7.91,0,0,1-.77,1.7c-.05.09-.1.21,0,.27a.21.21,0,0,0,.11,0,6,6,0,0,0,1,0,.52.52,0,0,1,.13-.43,1.59,1.59,0,0,0,.22-.13c.08-.08.06-.21.05-.32a4.9,4.9,0,0,1,.48-2.17c0-.07.08-.15.15-.13s.06.07.07.11a2.21,2.21,0,0,1,.08,1.41c-.14.35-.46.62-.57,1a4.45,4.45,0,0,0,1.15.06c0-.18,0-.4.19-.46l.13-.05c.11-.08.06-.25,0-.38a3,3,0,0,1-.09-1.37c0-.44,0-.89.11-1.32,0-.23-.07-.77.12-.92a.46.46,0,0,1,.31-.07c1.78.09,3.47,1.11,5.23.9a8.67,8.67,0,0,0,2.41-.81,1.46,1.46,0,0,1,1.11-.15.75.75,0,0,1,.42.48.91.91,0,0,0,.1.29c.06.08.21.11.26,0s0-.15,0-.22a.26.26,0,0,1,.41-.22.37.37,0,0,0,.13.43c.12,0,0-.27.14-.35a.35.35,0,0,1,.11,0,.78.78,0,0,0,.53-.35c.06-.12,0-.44.26-.36a.53.53,0,0,1,.27.3,2,2,0,0,0,.7,1,.2.2,0,0,0-.05.28,1.18,1.18,0,0,0,.19.25,1.33,1.33,0,0,1,.15.32,6.66,6.66,0,0,1,.32,1.77,1.36,1.36,0,0,1-.34,1.13c-.13.11-.32.19-.36.35a3.69,3.69,0,0,0,1.15.12c.07,0,.16,0,.19-.09s0-.15,0-.23.36-.13.48-.28,0-.35-.06-.53a1.44,1.44,0,0,1,.14-.56,4.9,4.9,0,0,0,0-.94c.05-.6.48-1.15.38-1.75a2.55,2.55,0,0,1-.12-.6,1.86,1.86,0,0,1,.06-.34,2.06,2.06,0,0,0-.07-1.23.69.69,0,0,1-.06-.31.9.9,0,0,1,.08-.21.91.91,0,0,0,0-.49c-.06-.29-.16-.58-.22-.87a3.83,3.83,0,0,1,0-.83,17,17,0,0,0-.16-2,5.12,5.12,0,0,0-.23-1.1,2.75,2.75,0,0,0-1.26-1.39c-1.3-.72-2.58-.33-3.94,0a24.14,24.14,0,0,1-2.94.39,18.85,18.85,0,0,1-2.25.12,20.92,20.92,0,0,1-2.61-.33q-2.81-.48-5.63-.81a2.59,2.59,0,0,1-.72-.16C353.55,317.77,353.41,317.68,353.25,317.63Z"/><path class="cls-54" d="M404,328.07a7.07,7.07,0,0,1,.29-1.35,9.23,9.23,0,0,0,.19-2.1,7.21,7.21,0,0,0-.21-2.12,3,3,0,0,0-1.18-1.72c-1-.63-2.28-.39-3.45-.28a33,33,0,0,1-5-.06,36,36,0,0,0-4.64.17c-.59.05-1.2,0-1.78.07a4.33,4.33,0,0,0-1.59.6,4.06,4.06,0,0,0-1.48,1.65,11.49,11.49,0,0,1-.89,2.35c-.14.2-.31.39-.44.6a4.77,4.77,0,0,0-.49,2,2.46,2.46,0,0,1-.85,1.78c-.06,0-.13.08-.19.05a.27.27,0,0,1-.07-.08c-.14-.21-.25-.54-.54-.43l-.07,0c-.2.13-.21.4-.21.61a1.16,1.16,0,0,0,.32.57.37.37,0,0,1,.13.2.35.35,0,0,1-.05.2,5.2,5.2,0,0,0-.39.64.83.83,0,0,0-.05.72c.09.18.25.3.33.48a1.1,1.1,0,0,1,0,.67l-.27,1c-.07.25-.52.79-.38,1.05l.13.17c0,.05,0,.1,0,.15.15.46.8.2,1.12.14a1.31,1.31,0,0,0,.34-.09,1.55,1.55,0,0,0,.56-.55,4.27,4.27,0,0,1,.54-.5,1.18,1.18,0,0,0,.32-.38c0-.08.06-.17.1-.24s.25-.2.36-.31a1.31,1.31,0,0,0,.32-.95c0-.42.05-.83.07-1.25,0,.07.13.07.2,0a1.86,1.86,0,0,1,.2-.1.67.67,0,0,1,.39.06,1.34,1.34,0,0,0,1.46-.52.73.73,0,0,0,.52.6.88.88,0,0,1,.23.07.45.45,0,0,1,.12.26,4.53,4.53,0,0,1-.39,3.09,8.79,8.79,0,0,1-.51.83,1.81,1.81,0,0,0,1.1.14.21.21,0,0,0,.17-.09c.06-.1,0-.26.07-.33l.11,0c.17-.05.21-.28.22-.46,0-.35,0-.7,0-1.05a2.18,2.18,0,0,1,.46-1.49,4,4,0,0,1,.41,1,1.94,1.94,0,0,1-.11,1.48,1.65,1.65,0,0,0-.25.47,2.57,2.57,0,0,0,1.2.07c-.07-.16.28-.21.32-.39s0-.09,0-.14a14.41,14.41,0,0,1-.43-1.72,2.19,2.19,0,0,1,0-.57,5.78,5.78,0,0,0,.12-.57,6.24,6.24,0,0,0-.16-.75c0-.21,0-.42,0-.61s-.14-.32-.11-.44.07-.1.11-.14l.56-.43a.7.7,0,0,1,.23-.15.8.8,0,0,1,.27,0,10.28,10.28,0,0,1,3.26.77l.41.13a3.28,3.28,0,0,0,1.07.21,5.58,5.58,0,0,0,.89-.17,3.19,3.19,0,0,1,2.12.33,1.13,1.13,0,0,0,.2.85l.12-.18a.33.33,0,0,0,.19.08,3,3,0,0,0,0-.52.31.31,0,0,1,.35.09.75.75,0,0,1,.13.36,6.75,6.75,0,0,1-.22,3.51,3.2,3.2,0,0,1-.71,1.1s-.07.08-.07.13.16.2.3.21a.91.91,0,0,0,.79-.2,1.49,1.49,0,0,1,.12-.14c.12-.1.3-.05.47-.05h.06c.06,0,0-.13,0-.2a1.42,1.42,0,0,1,.06-1c.08-.25.78-2.95.85-2.95s.15.15.17.27a1.72,1.72,0,0,0,.31.62,3,3,0,0,1,.32,1.32c0,.16,0,.31,0,.47s.12.46.13.69a1.64,1.64,0,0,1-.22.78c-.07.13-.33.41-.22.55s.94,0,1.07-.2.15-.23.27-.27a.61.61,0,0,0,.13,0,.18.18,0,0,0,.07-.21,1.06,1.06,0,0,0-.11-.21,1.67,1.67,0,0,1-.13-.77c0-.54,0-1.08.1-1.62a6.2,6.2,0,0,1,.08-.74,2.62,2.62,0,0,0,.18-.68,2.08,2.08,0,0,1,0-.25,1.13,1.13,0,0,1,.08-.24,3,3,0,0,0,.25-1.56A13.75,13.75,0,0,1,404,328.07Zm-.13-1-.48,3a1.17,1.17,0,0,1-.3-.75,11.67,11.67,0,0,1,.25-2.63,8.87,8.87,0,0,1,.35-1.32,13.5,13.5,0,0,0,.28-1.38.62.62,0,0,1,.08.42A20.84,20.84,0,0,1,403.84,327.07Z"/><path class="cls-55" d="M435.19,311.45a3.43,3.43,0,0,1-.86.42,1.8,1.8,0,0,1-.95-.05c-.63-.18-.71-1.06-.78-1.59a.14.14,0,0,0,0-.07.11.11,0,0,0-.14,0,.34.34,0,0,0-.05.14,3.17,3.17,0,0,0,.11,1.4,1.09,1.09,0,0,0,.68.63,2.41,2.41,0,0,0,1,.23.4.4,0,0,1-.35.33,3,3,0,0,1-.89-.1,6.64,6.64,0,0,0-1.18.11c-.35,0-.7,0-1,0s-.87.05-1.3.1c-.18,0-.37,0-.54,0s-.4.14-.6.19a6.23,6.23,0,0,1-1.78.1,3.9,3.9,0,0,0-.76,0,6.47,6.47,0,0,1-.88,0,10.82,10.82,0,0,1-2-.14,3.76,3.76,0,0,0-.66-.1,8.4,8.4,0,0,1-1.74-.07c-.31-.09-.63-.11-.94-.17l-1.1-.21a3,3,0,0,1-.73-.2,3.15,3.15,0,0,0-1.26-.21,5.71,5.71,0,0,0-1.29-.22,1.31,1.31,0,0,0-.69.3,5.85,5.85,0,0,1-.37.61,5.07,5.07,0,0,0-1.17,1.28,3.49,3.49,0,0,0-.19,1.61c0,.76.1,1.52.2,2.27a6.68,6.68,0,0,1-.12,2.56c-.09.33-.22.65-.29,1a5.64,5.64,0,0,0,0,1.69c0,.32,0,1,.39,1.2.08,0,.16-.73.17-.78a2.35,2.35,0,0,0,.19-.88c0-1.13,0-2.13,0-3.26a4.45,4.45,0,0,1,.39,4.24c-.09.22-.21.47-.09.67a1,1,0,0,0,.16.2,2.36,2.36,0,0,1,.35,1.36,17.89,17.89,0,0,0,.4,1.76,2.35,2.35,0,0,1-.23,1.75,1.13,1.13,0,0,0,.55.07,1.15,1.15,0,0,1,.1.58,8.07,8.07,0,0,0,1.3,0,.41.41,0,0,0,.21-.05c.18-.11.12-.39,0-.59l.46-.08a.12.12,0,0,0,.1,0,.13.13,0,0,0,0-.09,1.5,1.5,0,0,0-.42-.78,3.4,3.4,0,0,1-.7-2.48,6.14,6.14,0,0,1,.19-.85,5.73,5.73,0,0,0,.23-.7,3.55,3.55,0,0,1,.17-.77c0-.08.38-.63.37-.66s.08.18.13.27.07.13.14.14a.14.14,0,0,0,.1-.05c.26-.21.15-.65.34-.93s.37-.27.44-.48l.05-.12a.35.35,0,0,1,.13-.11l.36-.21a.24.24,0,0,1,.13-.05.28.28,0,0,1,.12,0c.3.19.54.44.84.61a6.92,6.92,0,0,0,1.45.63,7.4,7.4,0,0,0,1.55.2,16.91,16.91,0,0,0,3.41-.23,2.59,2.59,0,0,1,1.56,0,1.87,1.87,0,0,1,.86,1.52,12,12,0,0,0,.2,1.8c.07.23.17.45.24.67a5.73,5.73,0,0,1,.19,1.37,1.71,1.71,0,0,1-.13.93,3,3,0,0,0-.2.34c-.1.31.12.62.32.87a.66.66,0,0,0,.24.2.78.78,0,0,0,.22,0h.63c.24,0,.56-.07.57-.31s-.14-.32.11-.25a1.13,1.13,0,0,0,.55.05.35.35,0,0,0,.16-.06.28.28,0,0,0,.08-.2,1.06,1.06,0,0,0-.35-.62,2.93,2.93,0,0,1-.57-1.48,2,2,0,0,1,0-.9,5.37,5.37,0,0,1,.53-.84c.29-.49.09-1.06.29-1.54a1.57,1.57,0,0,0,.71.07,3.44,3.44,0,0,0,.53-.21c.22-.07.55-.06.74-.25a1.25,1.25,0,0,0,.16-.24c.29-.5.85-.67,1-1.22a8.71,8.71,0,0,0,.29-1.59,11.23,11.23,0,0,1,.68-2,.14.14,0,0,1,.07-.1c.08-.05.17.06.26.1s.35-.11.54-.13.5.25.72.13.19-.31.35-.37.18,0,.27,0a.32.32,0,0,0,.16-.2c.18-.49-.21-1-.26-1.52a2.28,2.28,0,0,1,0-.64,8.07,8.07,0,0,0,0-1.39.44.44,0,0,1,0-.23c.05-.14.21-.27.13-.39.21,0,.42.16.61.23a1.25,1.25,0,0,0,.78.13,2.14,2.14,0,0,0,.4-.2c.29-.16.62-.24.89-.42a.3.3,0,0,0,.12-.13.37.37,0,0,0-.06-.3,1.08,1.08,0,0,0-.21-.3l-.16-.1-.42-.24a1.33,1.33,0,0,0-.32-.15,1.32,1.32,0,0,0-.68.05,1.6,1.6,0,0,1-.48.11c-.21,0-.6-.24-.61-.47a3.81,3.81,0,0,0,1.25-.25,2.06,2.06,0,0,0,.42-.21,1.93,1.93,0,0,0,.31-.33,3.1,3.1,0,0,0,.74-1.61s0-.09,0-.09,0,0-.06,0c-.2.3-.38.61-.6.9a2,2,0,0,1-.81.7,2.77,2.77,0,0,1-1.31.13.5.5,0,0,1-.33-.12A2.1,2.1,0,0,0,435.19,311.45Z"/><path class="cls-56" d="M330.26,320.77a1.21,1.21,0,0,0,.09.35c0,.14,0,.27,0,.41a7.69,7.69,0,0,1,0,.83,6.41,6.41,0,0,1-.17,1.63.88.88,0,0,1-.11.24c0,.06-.1.11-.14.17s0,.34-.08.52-.29.49-.26.77l.84.08c.27,0,.59,0,.75-.2s.1-.46.28-.58.26-.06.36-.15a.35.35,0,0,0,0-.43c-.1-.13-.23-.22-.32-.35a1.26,1.26,0,0,1-.08-.94c.11-.73.27-1.46.33-2.19a2.94,2.94,0,0,1,.25-1.25,1.08,1.08,0,0,0,.14-.26.72.72,0,0,0-.11-.51,11,11,0,0,1-.69-1.48,4.68,4.68,0,0,1,.54-3.05,6.9,6.9,0,0,0,.73-2.6,7.71,7.71,0,0,1,.13,2.3c-.05.91.09,1.83,0,2.74a6.85,6.85,0,0,0-.3,1.14c0,.42.38.82.26,1.23a.88.88,0,0,1-.12.26,2,2,0,0,0-.08,1.25,3.08,3.08,0,0,1-.09,1.09s0,0,0,0,0,0,.06,0,.26-.31.35-.32.12.23.22.12a.47.47,0,0,0,.05-.1,4.57,4.57,0,0,0,.14-.72c0-.33.15-.65.16-1a6.64,6.64,0,0,1,0-1.18c0-.15.09-.28.12-.42a3,3,0,0,0-.26-1.41,5.37,5.37,0,0,1-.05-1.33c0-1.06.06-2.12.07-3.17a20,20,0,0,0,0-2.32c0-.35-.1-.7-.15-1a1.65,1.65,0,0,0-.54-.86c-.2-.2-.42-.4-.64-.59-.68-.58-1.82-.31-2.63-.35s-1.45-.18-2.18-.18a12.29,12.29,0,0,0-2.23.4c-1.55.31-3.11.61-4.68.8a24.51,24.51,0,0,1-3.53.21c-.6,0-1.2-.07-1.8-.11s-1-.21-1.55-.22-1.36.16-2,.11A10.82,10.82,0,0,0,310,308c-.37,0-.74.09-1.11.09-.74,0-1-.48-1.5-.85a1,1,0,0,0-1.4.2c-.1.14-.17.32-.32.41s-.36.07-.51.16-.31.49-.56.61a.94.94,0,0,1-.65-.09,2,2,0,0,0-1.48.14.22.22,0,0,0-.12.11.19.19,0,0,0,0,.13,1.87,1.87,0,0,0,2,1.07c.13,0,.29-.06.37.05a.35.35,0,0,1,.05.13c.19.85.37,1.69.55,2.53a.7.7,0,0,1,0,.29,1.12,1.12,0,0,1-.12.35,1.17,1.17,0,0,0-.16.72.88.88,0,0,0,.58.62,2.49,2.49,0,0,0,.86.13,1.18,1.18,0,0,0,.42-.05c.21-.07.35-.28.56-.34a.63.63,0,0,1,.7.33,1.79,1.79,0,0,1,.21.8c.06.06,0,0,0,.06a.36.36,0,0,1-.23.06,9.63,9.63,0,0,1-1.2,0c-.32,0-.6-.21-.93-.21a1.09,1.09,0,0,0-.75.3,2,2,0,0,0-.38-.21,4.37,4.37,0,0,0-.57-.29,1.06,1.06,0,0,0-1.09.31l-.09.09a.23.23,0,0,1-.14,0,4.32,4.32,0,0,1-.78-.22,1.16,1.16,0,0,0-.8,0c-.12,0-.23.16-.21.28a.26.26,0,0,0,.07.15,1.71,1.71,0,0,0,1.46.67c.06,0,.13,0,.17,0a.24.24,0,0,1,.05.1,4.61,4.61,0,0,1,.26,1.05c0,.35-.05.76.21,1a.7.7,0,0,0,.71.08.61.61,0,0,1,.18,0c.22,0,.26.32.32.54.1.39.48.64.81.89a4.46,4.46,0,0,1,.57.49c.15.16.25.33.47.41a.22.22,0,0,1,.13.06.34.34,0,0,1,.05.14c0,.23.05.46.08.68a1.43,1.43,0,0,1,0,.29,5.4,5.4,0,0,0-.08.69,4.14,4.14,0,0,0,.15.68A4.65,4.65,0,0,1,307,325a.78.78,0,0,1-.05.34,1.21,1.21,0,0,1-.21.25,1.73,1.73,0,0,0-.4.64c0,.32.58.24.81.25a.36.36,0,0,0,.23,0c.09-.06.1-.19.17-.27s.31-.22.18-.5a3.09,3.09,0,0,1-.19-1.57,1.15,1.15,0,0,1,.08-.41c0-.09.13-.17.18-.27.25-.38.1-.91.27-1.34a6.12,6.12,0,0,0,.31-.56c.07-.17.06-.4.14-.55a1.14,1.14,0,0,1,.42-.33,1,1,0,0,1,.26-.12,1.29,1.29,0,0,1,.39,0,2.08,2.08,0,0,0,1,0,.45.45,0,0,1,.28,0c.07,0,.11.12.17.17a.52.52,0,0,0,.55,0,4,4,0,0,0,.77-.45c.14.19,0,.45-.06.69a1.21,1.21,0,0,0,.17.57,4.26,4.26,0,0,1,.23,1.67.34.34,0,0,1-.05.22.33.33,0,0,1-.16.12,1.39,1.39,0,0,0-.66,1.24l.68,0c.21,0,.48,0,.52-.21s0-.13,0-.19.23-.17.35-.24a.63.63,0,0,0,.23-.4,1.93,1.93,0,0,0,0-.48,5.57,5.57,0,0,1,.27-2.22,1.27,1.27,0,0,1,.61.6,9,9,0,0,0,.52.84.21.21,0,0,1,.07.15.25.25,0,0,1-.06.14c-.16.24-.36.45-.53.68a1.41,1.41,0,0,0-.28.8,3.51,3.51,0,0,0,1,0,.14.14,0,0,1,.11,0l0,.06a1.16,1.16,0,0,1-.12,1.07c-.09.12-.21.23-.29.36a.51.51,0,0,0-.1.44,7.92,7.92,0,0,0,1.19,0,.21.21,0,0,0,.13,0c.14-.09,0-.34.16-.45s.15-.06.22-.11.07-.24,0-.35c-.17-.41.15-.82,0-1.23a2.37,2.37,0,0,0-.17-.36,4.25,4.25,0,0,1,0-2,.93.93,0,0,0,0-.33c-.06-.16-.2-.27-.27-.42a1.34,1.34,0,0,1,0-.84,8.62,8.62,0,0,0,0-1.76,37.07,37.07,0,0,1,4.08.24,11.33,11.33,0,0,0,4.66-.66.39.39,0,0,1,.18,0,.41.41,0,0,1,.21.1c.21.15.45.35.44.61a.85.85,0,0,1-.09.31,5,5,0,0,0-.21.62.58.58,0,0,0,0,.29c0,.09.09.18.18.18a.31.31,0,0,0,.26-.17l.61-.77a.11.11,0,0,1,.18,0l.76.46c0,.34-.09.69-.14,1a.36.36,0,0,0,0,.18.22.22,0,0,0,.31.07.65.65,0,0,0,.23-.26l.42-.7a.59.59,0,0,1,.15.41,9.26,9.26,0,0,1-.27,2.45,2.5,2.5,0,0,1-.27.81c-.15.24-.38.43-.51.68s-.13.71-.34,1a2.67,2.67,0,0,1-.36.31.65.65,0,0,0-.26.37c-.08.49,1.28.32,1.54.32a.44.44,0,0,0,.2,0c.13-.07.14-.25.17-.39a.76.76,0,0,1,.46-.54.89.89,0,0,0,.17-.08.43.43,0,0,0,.16-.39c0-.15-.05-.29-.05-.44a1.17,1.17,0,0,1,.08-.36,4.4,4.4,0,0,1,.38-1A10,10,0,0,0,330.26,320.77Z"/></g></g></svg>