<svg xmlns="http://www.w3.org/2000/svg" viewBox="0 0 152.81 80.02"><defs><style>.cls-1{font-size:22.89px;font-family:Cinzel-Bold, Cinzel Bold;font-weight:700;}.cls-1,.cls-2{fill:#93bf1f;}.cls-2,.cls-3,.cls-4{fill-rule:evenodd;}.cls-3{fill:#007441;}.cls-4{fill:#f8b658;}</style></defs><title>Asset 5</title><g id="Layer_2" data-name="Layer 2"><g id="Layer_1-2" data-name="Layer 1"><text class="cls-1" transform="translate(63.71 48.07)">Agro-360</text><path class="cls-2" d="M33.59,79.31c-.73.17-1.48.31-2.23.42A41,41,0,0,0,3.77,66.52c-.39-.65-.74-1.31-1.07-2A43,43,0,0,1,33.59,79.31Zm5.83-2.09a27.65,27.65,0,0,0,6-4,34.72,34.72,0,0,0-7.19,2.56C38.64,76.26,39,76.74,39.42,77.22Zm-16.75,2.4A35.06,35.06,0,0,0,9.3,73.22,27.39,27.39,0,0,0,22.67,79.62ZM6.84,70.76A37.09,37.09,0,0,1,26.13,80c.93,0,1.86,0,2.79,0A39,39,0,0,0,5.11,68.58C5.65,69.33,6.23,70.06,6.84,70.76ZM0,52.66a27.22,27.22,0,0,0,1.85,9.9,44.91,44.91,0,0,1,33.8,16.18c.66-.21,1.3-.44,1.94-.7A46.89,46.89,0,0,0,4.9,60.77,24.24,24.24,0,0,1,3,51.27C3,35.63,18.83,17.88,27.35,4.4c8.38,13.36,24.39,31,24.39,46.87a24.24,24.24,0,0,1-1.92,9.5,46.55,46.55,0,0,0-20.69,6.74c.57.4,1.14.82,1.69,1.24a45,45,0,0,1,22-6.19,27.18,27.18,0,0,0,1.85-9.9C54.72,34.42,36.44,16.05,27.36,0,18.54,15.6,0,34.48,0,52.66ZM34,71.41a40.89,40.89,0,0,1,17-4.89c.39-.65.74-1.31,1.07-2a42.68,42.68,0,0,0-19.57,5.53C33,70.5,33.49,71,34,71.41Zm2.89,2.87a36.92,36.92,0,0,1,11-3.52c.61-.7,1.19-1.43,1.73-2.18a38.89,38.89,0,0,0-14.13,4.24C36,73.3,36.43,73.78,36.89,74.28Z"/><path class="cls-3" d="M27.55,46.16c.46-7.37,9.09-4.07,10.69-6.72,1.18,6.31-4.34,8.86-9.51,7.77.28-3,5.32-3,6.63-5C33.76,43.72,29.7,43.08,27.55,46.16Zm.24,8.3V49.75c0-6.83-8.29-6.65-9.52-9,2.8,2.38,7,1.18,8.78,4.7-.38-7.4-8.5-3.91-10.71-7.5-.39,7.8,4.67,8.94,8.53,9.2,1.23.08,1.92.7,1.92,2.19v1.8A32.23,32.23,0,0,0,6.27,59a48.62,48.62,0,0,1,21.08,7.37A48.82,48.82,0,0,1,48.45,59a32.2,32.2,0,0,0-19.92-7.8Z"/><path class="cls-4" d="M12.24,30.3,15,34.58a17.24,17.24,0,0,0-4.32,7.75L7.41,39.88A68.74,68.74,0,0,1,12.24,30.3Zm1.46-2.38,2.42,5.59a17.22,17.22,0,0,1,6.76-3.58l-2.6-11.76C18,21.37,15.79,24.61,13.7,27.92Zm-8.06,29A34.11,34.11,0,0,1,11.4,53.1l-6.35.65A22,22,0,0,0,5.64,56.93Zm4.65-12.69L6.52,42.3a28.64,28.64,0,0,0-1.6,9.22L11,52A17.37,17.37,0,0,1,10.29,44.24ZM27.35,8c-1.5,2.25-3.06,4.48-4.62,6.7L24.4,29.6a17.65,17.65,0,0,1,5.89,0L32,14.69C30.39,12.47,28.84,10.24,27.35,8Zm17,36.27a17.27,17.27,0,0,1-.69,7.62l6.12-.44a28.81,28.81,0,0,0-1.59-9.15ZM49.08,57a22.57,22.57,0,0,0,.59-3.2l-6.4-.66A34.68,34.68,0,0,1,49.08,57Zm-1.76-17.1a67.79,67.79,0,0,0-4.85-9.58L39.7,34.6A17.07,17.07,0,0,1,44,42.35ZM34.41,18.17,31.82,29.94a17,17,0,0,1,6.74,3.59L41,27.89C38.91,24.58,36.67,21.36,34.41,18.17Z"/></g></g></svg>